<mxfile host="Electron" agent="Mozilla/5.0 (Macintosh; Intel Mac OS X 10_15_7) AppleWebKit/537.36 (KHTML, like Gecko) draw.io/24.7.17 Chrome/128.0.6613.36 Electron/32.0.1 Safari/537.36" version="24.7.17">
  <diagram name="Page-1" id="Z3Ff5de7To0AwEFlAEXJ">
    <mxGraphModel dx="1137" dy="896" grid="1" gridSize="10" guides="1" tooltips="1" connect="1" arrows="1" fold="1" page="1" pageScale="1" pageWidth="827" pageHeight="1169" math="0" shadow="0">
      <root>
        <mxCell id="0" />
        <mxCell id="1" parent="0" />
        <mxCell id="jmQXI40xaoxK2nZOnJhU-1" value="" style="shape=image;verticalLabelPosition=bottom;labelBackgroundColor=default;verticalAlign=top;aspect=fixed;imageAspect=0;image=data:image/svg+xml,PHN2ZyB4bWxuczp4bGluaz0iaHR0cDovL3d3dy53My5vcmcvMTk5OS94bGluayIgeG1sbnM9Imh0dHA6Ly93d3cudzMub3JnLzIwMDAvc3ZnIiBvdmVyZmxvdz0iaGlkZGVuIiB4bWw6c3BhY2U9InByZXNlcnZlIiBoZWlnaHQ9IjE5ODUiIHdpZHRoPSIyODA1IiB2aWV3Qm94PSIwIDAgMjgwNSAxOTg1Ij48ZyB0cmFuc2Zvcm09InRyYW5zbGF0ZSgtMjUyIC0yOTcpIj48Zz48cmVjdCBmaWxsLW9wYWNpdHk9IjEiIGZpbGw9IiNGMkYyRjIiIHN0cm9rZS1vcGFjaXR5PSIxIiBzdHJva2UtbWl0ZXJsaW1pdD0iMTAiIHN0cm9rZS1saW5lam9pbj0icm91bmQiIHN0cm9rZS1saW5lY2FwPSJidXR0IiBzdHJva2Utd2lkdGg9IjIuMjkxNjciIHN0cm9rZT0iIzQxNDI0NCIgaGVpZ2h0PSIxMDM1IiB3aWR0aD0iNTkyIiB5PSI0MjMiIHg9IjE4NTMiLz48cGF0aCBmaWxsLXJ1bGU9ImV2ZW5vZGQiIGZpbGw9Im5vbmUiIHN0cm9rZS1vcGFjaXR5PSIxIiBzdHJva2UtbWl0ZXJsaW1pdD0iMTAiIHN0cm9rZS1saW5lam9pbj0icm91bmQiIHN0cm9rZS1saW5lY2FwPSJidXR0IiBzdHJva2Utd2lkdGg9IjEuMTQ1ODMiIHN0cm9rZT0iIzU2OTMzNCIgZD0iTTE1NzQuNjkgMjAxNS43NCAxNTc0LjY5IDIyNzYuNzMiLz48cGF0aCBmaWxsLXJ1bGU9ImV2ZW5vZGQiIGZpbGw9Im5vbmUiIHN0cm9rZS1vcGFjaXR5PSIxIiBzdHJva2UtbWl0ZXJsaW1pdD0iMTAiIHN0cm9rZS1saW5lam9pbj0icm91bmQiIHN0cm9rZS1saW5lY2FwPSJidXR0IiBzdHJva2Utd2lkdGg9IjEuMTQ1ODMiIHN0cm9rZT0iIzU2OTMzNCIgZD0iTTE3NTcuMzUgMTk1MS4wMyAxNzU3LjM1IDIyNzYuNzMiLz48cGF0aCBmaWxsLXJ1bGU9ImV2ZW5vZGQiIGZpbGw9Im5vbmUiIHN0cm9rZS1vcGFjaXR5PSIxIiBzdHJva2UtbWl0ZXJsaW1pdD0iMTAiIHN0cm9rZS1saW5lam9pbj0icm91bmQiIHN0cm9rZS1saW5lY2FwPSJidXR0IiBzdHJva2Utd2lkdGg9IjEuMTQ1ODMiIHN0cm9rZT0iIzU2OTMzNCIgZD0iTTE5MjUuNjQgMjAxNS43NCAxOTI1LjY0IDIyNzYuNzMiLz48cGF0aCBmaWxsLXJ1bGU9ImV2ZW5vZGQiIGZpbGw9Im5vbmUiIHN0cm9rZS1vcGFjaXR5PSIxIiBzdHJva2UtbWl0ZXJsaW1pdD0iMTAiIHN0cm9rZS1saW5lam9pbj0icm91bmQiIHN0cm9rZS1saW5lY2FwPSJidXR0IiBzdHJva2Utd2lkdGg9IjEuMTQ1ODMiIHN0cm9rZT0iIzU2OTMzNCIgZD0iTTI0MDkuMjMgMjAxNS43NCAyNDA5LjIzIDIyNzYuNzMiLz48cGF0aCBmaWxsLXJ1bGU9ImV2ZW5vZGQiIGZpbGw9Im5vbmUiIHN0cm9rZS1vcGFjaXR5PSIxIiBzdHJva2UtbWl0ZXJsaW1pdD0iMTAiIHN0cm9rZS1saW5lam9pbj0icm91bmQiIHN0cm9rZS1saW5lY2FwPSJidXR0IiBzdHJva2Utd2lkdGg9IjEuMTQ1ODMiIHN0cm9rZT0iIzU2OTMzNCIgZD0iTTI3MTQuNzcgMjAxNS43NCAyNzE0Ljc3IDIyNzYuNzMiLz48cGF0aCBmaWxsLXJ1bGU9ImV2ZW5vZGQiIGZpbGw9Im5vbmUiIHN0cm9rZS1vcGFjaXR5PSIxIiBzdHJva2UtbWl0ZXJsaW1pdD0iMTAiIHN0cm9rZS1saW5lam9pbj0icm91bmQiIHN0cm9rZS1saW5lY2FwPSJidXR0IiBzdHJva2Utd2lkdGg9IjEuMTQ1ODMiIHN0cm9rZT0iIzU2OTMzNCIgZD0iTTEyODcuNzUgMjAxNi4zMiAzMDU2LjA1IDIwMTYuMzIiLz48cGF0aCBmaWxsLXJ1bGU9ImV2ZW5vZGQiIGZpbGw9Im5vbmUiIHN0cm9rZS1vcGFjaXR5PSIxIiBzdHJva2UtbWl0ZXJsaW1pdD0iMTAiIHN0cm9rZS1saW5lam9pbj0icm91bmQiIHN0cm9rZS1saW5lY2FwPSJidXR0IiBzdHJva2Utd2lkdGg9IjEuMTQ1ODMiIHN0cm9rZT0iIzU2OTMzNCIgZD0iTTE3NTYuNzggMjA4MS4yOCAzMDU2LjA1IDIwODEuMjgiLz48cGF0aCBmaWxsLXJ1bGU9ImV2ZW5vZGQiIGZpbGw9Im5vbmUiIHN0cm9rZS1vcGFjaXR5PSIxIiBzdHJva2UtbWl0ZXJsaW1pdD0iMTAiIHN0cm9rZS1saW5lam9pbj0icm91bmQiIHN0cm9rZS1saW5lY2FwPSJidXR0IiBzdHJva2Utd2lkdGg9IjEuMTQ1ODMiIHN0cm9rZT0iIzU2OTMzNCIgZD0iTTE3NTYuNzggMjE0Ni4yNCAzMDU2LjA1IDIxNDYuMjQiLz48cGF0aCBmaWxsLXJ1bGU9ImV2ZW5vZGQiIGZpbGw9Im5vbmUiIHN0cm9rZS1vcGFjaXR5PSIxIiBzdHJva2UtbWl0ZXJsaW1pdD0iMTAiIHN0cm9rZS1saW5lam9pbj0icm91bmQiIHN0cm9rZS1saW5lY2FwPSJidXR0IiBzdHJva2Utd2lkdGg9IjEuMTQ1ODMiIHN0cm9rZT0iIzU2OTMzNCIgZD0iTTE3NTYuNzggMjIxMS4yIDMwNTYuMDUgMjIxMS4yIi8+PHBhdGggZmlsbC1ydWxlPSJldmVub2RkIiBmaWxsPSJub25lIiBzdHJva2Utb3BhY2l0eT0iMSIgc3Ryb2tlLW1pdGVybGltaXQ9IjEwIiBzdHJva2UtbGluZWpvaW49InJvdW5kIiBzdHJva2UtbGluZWNhcD0iYnV0dCIgc3Ryb2tlLXdpZHRoPSIxLjE0NTgzIiBzdHJva2U9IiM1NjkzMzQiIGQ9Ik0xMjg4LjMyIDIwMTUuNzQgMTI4OC4zMiAyMjc2LjczIi8+PHBhdGggZmlsbC1ydWxlPSJldmVub2RkIiBmaWxsPSJub25lIiBzdHJva2Utb3BhY2l0eT0iMSIgc3Ryb2tlLW1pdGVybGltaXQ9IjEwIiBzdHJva2UtbGluZWpvaW49InJvdW5kIiBzdHJva2UtbGluZWNhcD0iYnV0dCIgc3Ryb2tlLXdpZHRoPSIxLjE0NTgzIiBzdHJva2U9IiM1NjkzMzQiIGQ9Ik0zMDU1LjQ4IDE5NTEuMDMgMzA1NS40OCAyMjc2LjczIi8+PHBhdGggZmlsbC1ydWxlPSJldmVub2RkIiBmaWxsPSJub25lIiBzdHJva2Utb3BhY2l0eT0iMSIgc3Ryb2tlLW1pdGVybGltaXQ9IjEwIiBzdHJva2UtbGluZWpvaW49InJvdW5kIiBzdHJva2UtbGluZWNhcD0iYnV0dCIgc3Ryb2tlLXdpZHRoPSIxLjE0NTgzIiBzdHJva2U9IiM1NjkzMzQiIGQ9Ik0xNzU2Ljc4IDE5NTEuNiAzMDU2LjA1IDE5NTEuNiIvPjxwYXRoIGZpbGwtcnVsZT0iZXZlbm9kZCIgZmlsbD0ibm9uZSIgc3Ryb2tlLW9wYWNpdHk9IjEiIHN0cm9rZS1taXRlcmxpbWl0PSIxMCIgc3Ryb2tlLWxpbmVqb2luPSJyb3VuZCIgc3Ryb2tlLWxpbmVjYXA9ImJ1dHQiIHN0cm9rZS13aWR0aD0iMS4xNDU4MyIgc3Ryb2tlPSIjNTY5MzM0IiBkPSJNMTI4Ny43NSAyMjc2LjE2IDMwNTYuMDUgMjI3Ni4xNiIvPjx0ZXh0IHRyYW5zZm9ybT0ibWF0cml4KDEgMCAwIDEgMjM1NS4xNCAxOTk1KSIgdGV4dC1kZWNvcmF0aW9uPSJub25lIiB3cml0aW5nLW1vZGU9ImxyLXRiIiBkaXJlY3Rpb249Imx0ciIgdGV4dC1hbmNob3I9InN0YXJ0IiBmb250LXNpemU9IjMyIiBmb250LXN0cmV0Y2g9Im5vcm1hbCIgZm9udC13ZWlnaHQ9IjMwMCIgZm9udC12YXJpYW50PSJub3JtYWwiIGZvbnQtc3R5bGU9Im5vcm1hbCIgZm9udC1mYW1pbHk9IkNpc2NvU2Fuc1RUIExpZ2h0LENpc2NvU2Fuc1RUIExpZ2h0X01TRm9udFNlcnZpY2Usc2Fucy1zZXJpZiIgZmlsbC1vcGFjaXR5PSIxIiBmaWxsPSIjNTY5MzM0Ij5BZ2VudHM8L3RleHQ+PHRleHQgdHJhbnNmb3JtPSJtYXRyaXgoMSAwIDAgMSAyNzg3LjE2IDIwNjApIiB0ZXh0LWRlY29yYXRpb249Im5vbmUiIHdyaXRpbmctbW9kZT0ibHItdGIiIGRpcmVjdGlvbj0ibHRyIiB0ZXh0LWFuY2hvcj0ic3RhcnQiIGZvbnQtc2l6ZT0iMzIiIGZvbnQtc3RyZXRjaD0ibm9ybWFsIiBmb250LXdlaWdodD0iMzAwIiBmb250LXZhcmlhbnQ9Im5vcm1hbCIgZm9udC1zdHlsZT0ibm9ybWFsIiBmb250LWZhbWlseT0iQ2lzY29TYW5zVFQgTGlnaHQsQ2lzY29TYW5zVFQgTGlnaHRfTVNGb250U2VydmljZSxzYW5zLXNlcmlmIiBmaWxsLW9wYWNpdHk9IjEiIGZpbGw9IiM1NjkzMzQiPltWQ18xMSwgLi4uLi4uXTwvdGV4dD48dGV4dCB0cmFuc2Zvcm09Im1hdHJpeCgxIDAgMCAxIDI0OTUuNTQgMjA2MCkiIHRleHQtZGVjb3JhdGlvbj0ibm9uZSIgd3JpdGluZy1tb2RlPSJsci10YiIgZGlyZWN0aW9uPSJsdHIiIHRleHQtYW5jaG9yPSJzdGFydCIgZm9udC1zaXplPSIzMiIgZm9udC1zdHJldGNoPSJub3JtYWwiIGZvbnQtd2VpZ2h0PSIzMDAiIGZvbnQtdmFyaWFudD0ibm9ybWFsIiBmb250LXN0eWxlPSJub3JtYWwiIGZvbnQtZmFtaWx5PSJDaXNjb1NhbnNUVCBMaWdodCxDaXNjb1NhbnNUVCBMaWdodF9NU0ZvbnRTZXJ2aWNlLHNhbnMtc2VyaWYiIGZpbGwtb3BhY2l0eT0iMSIgZmlsbD0iIzU2OTMzNCI+QmFkZ2VfPC90ZXh0Pjx0ZXh0IHRyYW5zZm9ybT0ibWF0cml4KDEgMCAwIDEgMjYwOC45OCAyMDYwKSIgdGV4dC1kZWNvcmF0aW9uPSJub25lIiB3cml0aW5nLW1vZGU9ImxyLXRiIiBkaXJlY3Rpb249Imx0ciIgdGV4dC1hbmNob3I9InN0YXJ0IiBmb250LXNpemU9IjMyIiBmb250LXN0cmV0Y2g9Im5vcm1hbCIgZm9udC13ZWlnaHQ9IjMwMCIgZm9udC12YXJpYW50PSJub3JtYWwiIGZvbnQtc3R5bGU9Im5vcm1hbCIgZm9udC1mYW1pbHk9IkNpc2NvU2Fuc1RUIExpZ2h0LENpc2NvU2Fuc1RUIExpZ2h0X01TRm9udFNlcnZpY2Usc2Fucy1zZXJpZiIgZmlsbC1vcGFjaXR5PSIxIiBmaWxsPSIjNTY5MzM0Ij4xPC90ZXh0Pjx0ZXh0IHRyYW5zZm9ybT0ibWF0cml4KDEgMCAwIDEgMjAxNy4wNCAyMDYwKSIgdGV4dC1kZWNvcmF0aW9uPSJub25lIiB3cml0aW5nLW1vZGU9ImxyLXRiIiBkaXJlY3Rpb249Imx0ciIgdGV4dC1hbmNob3I9InN0YXJ0IiBmb250LXNpemU9IjMyIiBmb250LXN0cmV0Y2g9Im5vcm1hbCIgZm9udC13ZWlnaHQ9IjMwMCIgZm9udC12YXJpYW50PSJub3JtYWwiIGZvbnQtc3R5bGU9Im5vcm1hbCIgZm9udC1mYW1pbHk9IkNpc2NvU2Fuc1RUIExpZ2h0LENpc2NvU2Fuc1RUIExpZ2h0X01TRm9udFNlcnZpY2Usc2Fucy1zZXJpZiIgZmlsbC1vcGFjaXR5PSIxIiBmaWxsPSIjNTY5MzM0Ij5SZXNvbHZlck1ldGFkYXRhXzE8L3RleHQ+PHRleHQgdHJhbnNmb3JtPSJtYXRyaXgoMSAwIDAgMSAxODA3LjEyIDIwNjApIiB0ZXh0LWRlY29yYXRpb249Im5vbmUiIHdyaXRpbmctbW9kZT0ibHItdGIiIGRpcmVjdGlvbj0ibHRyIiB0ZXh0LWFuY2hvcj0ic3RhcnQiIGZvbnQtc2l6ZT0iMzIiIGZvbnQtc3RyZXRjaD0ibm9ybWFsIiBmb250LXdlaWdodD0iMzAwIiBmb250LXZhcmlhbnQ9Im5vcm1hbCIgZm9udC1zdHlsZT0ibm9ybWFsIiBmb250LWZhbWlseT0iQ2lzY29TYW5zVFQgTGlnaHQsQ2lzY29TYW5zVFQgTGlnaHRfTVNGb250U2VydmljZSxzYW5zLXNlcmlmIiBmaWxsLW9wYWNpdHk9IjEiIGZpbGw9IiM1NjkzMzQiPklEXzE8L3RleHQ+PHRleHQgdHJhbnNmb3JtPSJtYXRyaXgoMSAwIDAgMSAxNjA1LjI5IDIxNTcpIiB0ZXh0LWRlY29yYXRpb249Im5vbmUiIHdyaXRpbmctbW9kZT0ibHItdGIiIGRpcmVjdGlvbj0ibHRyIiB0ZXh0LWFuY2hvcj0ic3RhcnQiIGZvbnQtc2l6ZT0iMzIiIGZvbnQtc3RyZXRjaD0ibm9ybWFsIiBmb250LXdlaWdodD0iNzAwIiBmb250LXZhcmlhbnQ9Im5vcm1hbCIgZm9udC1zdHlsZT0ibm9ybWFsIiBmb250LWZhbWlseT0iQ2lzY29TYW5zVFQsQ2lzY29TYW5zVFRfTVNGb250U2VydmljZSxzYW5zLXNlcmlmIiBmaWxsLW9wYWNpdHk9IjEiIGZpbGw9IiM1NjkzMzQiPlB1YktleTwvdGV4dD48dGV4dCB0cmFuc2Zvcm09Im1hdHJpeCgxIDAgMCAxIDEzMzYuOTcgMjE1NykiIHRleHQtZGVjb3JhdGlvbj0ibm9uZSIgd3JpdGluZy1tb2RlPSJsci10YiIgZGlyZWN0aW9uPSJsdHIiIHRleHQtYW5jaG9yPSJzdGFydCIgZm9udC1zaXplPSIzMiIgZm9udC1zdHJldGNoPSJub3JtYWwiIGZvbnQtd2VpZ2h0PSI3MDAiIGZvbnQtdmFyaWFudD0ibm9ybWFsIiBmb250LXN0eWxlPSJub3JtYWwiIGZvbnQtZmFtaWx5PSJDaXNjb1NhbnNUVCxDaXNjb1NhbnNUVF9NU0ZvbnRTZXJ2aWNlLHNhbnMtc2VyaWYiIGZpbGwtb3BhY2l0eT0iMSIgZmlsbD0iIzU2OTMzNCI+b3JnOnN1YjwvdGV4dD48dGV4dCB0cmFuc2Zvcm09Im1hdHJpeCgxIDAgMCAxIDE0NTYuMTQgMjE1NykiIHRleHQtZGVjb3JhdGlvbj0ibm9uZSIgd3JpdGluZy1tb2RlPSJsci10YiIgZGlyZWN0aW9uPSJsdHIiIHRleHQtYW5jaG9yPSJzdGFydCIgZm9udC1zaXplPSIzMiIgZm9udC1zdHJldGNoPSJub3JtYWwiIGZvbnQtd2VpZ2h0PSI3MDAiIGZvbnQtdmFyaWFudD0ibm9ybWFsIiBmb250LXN0eWxlPSJub3JtYWwiIGZvbnQtZmFtaWx5PSJDaXNjb1NhbnNUVCxDaXNjb1NhbnNUVF9NU0ZvbnRTZXJ2aWNlLHNhbnMtc2VyaWYiIGZpbGwtb3BhY2l0eT0iMSIgZmlsbD0iIzU2OTMzNCI+LTwvdGV4dD48dGV4dCB0cmFuc2Zvcm09Im1hdHJpeCgxIDAgMCAxIDE0NzMuMzMgMjE1NykiIHRleHQtZGVjb3JhdGlvbj0ibm9uZSIgd3JpdGluZy1tb2RlPSJsci10YiIgZGlyZWN0aW9uPSJsdHIiIHRleHQtYW5jaG9yPSJzdGFydCIgZm9udC1zaXplPSIzMiIgZm9udC1zdHJldGNoPSJub3JtYWwiIGZvbnQtd2VpZ2h0PSI3MDAiIGZvbnQtdmFyaWFudD0ibm9ybWFsIiBmb250LXN0eWxlPSJub3JtYWwiIGZvbnQtZmFtaWx5PSJDaXNjb1NhbnNUVCxDaXNjb1NhbnNUVF9NU0ZvbnRTZXJ2aWNlLHNhbnMtc2VyaWYiIGZpbGwtb3BhY2l0eT0iMSIgZmlsbD0iIzU2OTMzNCI+b3JnPC90ZXh0Pjx0ZXh0IHRyYW5zZm9ybT0ibWF0cml4KDEgMCAwIDEgMjg3MS4zOCAyMTI1KSIgdGV4dC1kZWNvcmF0aW9uPSJub25lIiB3cml0aW5nLW1vZGU9ImxyLXRiIiBkaXJlY3Rpb249Imx0ciIgdGV4dC1hbmNob3I9InN0YXJ0IiBmb250LXNpemU9IjMyIiBmb250LXN0cmV0Y2g9Im5vcm1hbCIgZm9udC13ZWlnaHQ9IjMwMCIgZm9udC12YXJpYW50PSJub3JtYWwiIGZvbnQtc3R5bGU9Im5vcm1hbCIgZm9udC1mYW1pbHk9IkNpc2NvU2Fuc1RUIExpZ2h0LENpc2NvU2Fuc1RUIExpZ2h0X01TRm9udFNlcnZpY2Usc2Fucy1zZXJpZiIgZmlsbC1vcGFjaXR5PSIxIiBmaWxsPSIjNTY5MzM0Ij4uLi48L3RleHQ+PHRleHQgdHJhbnNmb3JtPSJtYXRyaXgoMSAwIDAgMSAyNTQ4LjI1IDIxMjUpIiB0ZXh0LWRlY29yYXRpb249Im5vbmUiIHdyaXRpbmctbW9kZT0ibHItdGIiIGRpcmVjdGlvbj0ibHRyIiB0ZXh0LWFuY2hvcj0ic3RhcnQiIGZvbnQtc2l6ZT0iMzIiIGZvbnQtc3RyZXRjaD0ibm9ybWFsIiBmb250LXdlaWdodD0iMzAwIiBmb250LXZhcmlhbnQ9Im5vcm1hbCIgZm9udC1zdHlsZT0ibm9ybWFsIiBmb250LWZhbWlseT0iQ2lzY29TYW5zVFQgTGlnaHQsQ2lzY29TYW5zVFQgTGlnaHRfTVNGb250U2VydmljZSxzYW5zLXNlcmlmIiBmaWxsLW9wYWNpdHk9IjEiIGZpbGw9IiM1NjkzMzQiPi4uLjwvdGV4dD48dGV4dCB0cmFuc2Zvcm09Im1hdHJpeCgxIDAgMCAxIDIxNTMuNjggMjEyNSkiIHRleHQtZGVjb3JhdGlvbj0ibm9uZSIgd3JpdGluZy1tb2RlPSJsci10YiIgZGlyZWN0aW9uPSJsdHIiIHRleHQtYW5jaG9yPSJzdGFydCIgZm9udC1zaXplPSIzMiIgZm9udC1zdHJldGNoPSJub3JtYWwiIGZvbnQtd2VpZ2h0PSIzMDAiIGZvbnQtdmFyaWFudD0ibm9ybWFsIiBmb250LXN0eWxlPSJub3JtYWwiIGZvbnQtZmFtaWx5PSJDaXNjb1NhbnNUVCBMaWdodCxDaXNjb1NhbnNUVCBMaWdodF9NU0ZvbnRTZXJ2aWNlLHNhbnMtc2VyaWYiIGZpbGwtb3BhY2l0eT0iMSIgZmlsbD0iIzU2OTMzNCI+Li4uPC90ZXh0Pjx0ZXh0IHRyYW5zZm9ybT0ibWF0cml4KDEgMCAwIDEgMTgyNy43NCAyMTI1KSIgdGV4dC1kZWNvcmF0aW9uPSJub25lIiB3cml0aW5nLW1vZGU9ImxyLXRiIiBkaXJlY3Rpb249Imx0ciIgdGV4dC1hbmNob3I9InN0YXJ0IiBmb250LXNpemU9IjMyIiBmb250LXN0cmV0Y2g9Im5vcm1hbCIgZm9udC13ZWlnaHQ9IjMwMCIgZm9udC12YXJpYW50PSJub3JtYWwiIGZvbnQtc3R5bGU9Im5vcm1hbCIgZm9udC1mYW1pbHk9IkNpc2NvU2Fuc1RUIExpZ2h0LENpc2NvU2Fuc1RUIExpZ2h0X01TRm9udFNlcnZpY2Usc2Fucy1zZXJpZiIgZmlsbC1vcGFjaXR5PSIxIiBmaWxsPSIjNTY5MzM0Ij4uLi48L3RleHQ+PHRleHQgdHJhbnNmb3JtPSJtYXRyaXgoMSAwIDAgMSAyODcxLjM4IDIxODkpIiB0ZXh0LWRlY29yYXRpb249Im5vbmUiIHdyaXRpbmctbW9kZT0ibHItdGIiIGRpcmVjdGlvbj0ibHRyIiB0ZXh0LWFuY2hvcj0ic3RhcnQiIGZvbnQtc2l6ZT0iMzIiIGZvbnQtc3RyZXRjaD0ibm9ybWFsIiBmb250LXdlaWdodD0iMzAwIiBmb250LXZhcmlhbnQ9Im5vcm1hbCIgZm9udC1zdHlsZT0ibm9ybWFsIiBmb250LWZhbWlseT0iQ2lzY29TYW5zVFQgTGlnaHQsQ2lzY29TYW5zVFQgTGlnaHRfTVNGb250U2VydmljZSxzYW5zLXNlcmlmIiBmaWxsLW9wYWNpdHk9IjEiIGZpbGw9IiM1NjkzMzQiPi4uLjwvdGV4dD48dGV4dCB0cmFuc2Zvcm09Im1hdHJpeCgxIDAgMCAxIDI1NDguMjUgMjE4OSkiIHRleHQtZGVjb3JhdGlvbj0ibm9uZSIgd3JpdGluZy1tb2RlPSJsci10YiIgZGlyZWN0aW9uPSJsdHIiIHRleHQtYW5jaG9yPSJzdGFydCIgZm9udC1zaXplPSIzMiIgZm9udC1zdHJldGNoPSJub3JtYWwiIGZvbnQtd2VpZ2h0PSIzMDAiIGZvbnQtdmFyaWFudD0ibm9ybWFsIiBmb250LXN0eWxlPSJub3JtYWwiIGZvbnQtZmFtaWx5PSJDaXNjb1NhbnNUVCBMaWdodCxDaXNjb1NhbnNUVCBMaWdodF9NU0ZvbnRTZXJ2aWNlLHNhbnMtc2VyaWYiIGZpbGwtb3BhY2l0eT0iMSIgZmlsbD0iIzU2OTMzNCI+Li4uPC90ZXh0Pjx0ZXh0IHRyYW5zZm9ybT0ibWF0cml4KDEgMCAwIDEgMjE1My42OCAyMTg5KSIgdGV4dC1kZWNvcmF0aW9uPSJub25lIiB3cml0aW5nLW1vZGU9ImxyLXRiIiBkaXJlY3Rpb249Imx0ciIgdGV4dC1hbmNob3I9InN0YXJ0IiBmb250LXNpemU9IjMyIiBmb250LXN0cmV0Y2g9Im5vcm1hbCIgZm9udC13ZWlnaHQ9IjMwMCIgZm9udC12YXJpYW50PSJub3JtYWwiIGZvbnQtc3R5bGU9Im5vcm1hbCIgZm9udC1mYW1pbHk9IkNpc2NvU2Fuc1RUIExpZ2h0LENpc2NvU2Fuc1RUIExpZ2h0X01TRm9udFNlcnZpY2Usc2Fucy1zZXJpZiIgZmlsbC1vcGFjaXR5PSIxIiBmaWxsPSIjNTY5MzM0Ij4uLi48L3RleHQ+PHRleHQgdHJhbnNmb3JtPSJtYXRyaXgoMSAwIDAgMSAxODI3Ljc0IDIxODkpIiB0ZXh0LWRlY29yYXRpb249Im5vbmUiIHdyaXRpbmctbW9kZT0ibHItdGIiIGRpcmVjdGlvbj0ibHRyIiB0ZXh0LWFuY2hvcj0ic3RhcnQiIGZvbnQtc2l6ZT0iMzIiIGZvbnQtc3RyZXRjaD0ibm9ybWFsIiBmb250LXdlaWdodD0iMzAwIiBmb250LXZhcmlhbnQ9Im5vcm1hbCIgZm9udC1zdHlsZT0ibm9ybWFsIiBmb250LWZhbWlseT0iQ2lzY29TYW5zVFQgTGlnaHQsQ2lzY29TYW5zVFQgTGlnaHRfTVNGb250U2VydmljZSxzYW5zLXNlcmlmIiBmaWxsLW9wYWNpdHk9IjEiIGZpbGw9IiM1NjkzMzQiPi4uLjwvdGV4dD48dGV4dCB0cmFuc2Zvcm09Im1hdHJpeCgxIDAgMCAxIDI3ODguMDIgMjI1NCkiIHRleHQtZGVjb3JhdGlvbj0ibm9uZSIgd3JpdGluZy1tb2RlPSJsci10YiIgZGlyZWN0aW9uPSJsdHIiIHRleHQtYW5jaG9yPSJzdGFydCIgZm9udC1zaXplPSIzMiIgZm9udC1zdHJldGNoPSJub3JtYWwiIGZvbnQtd2VpZ2h0PSIzMDAiIGZvbnQtdmFyaWFudD0ibm9ybWFsIiBmb250LXN0eWxlPSJub3JtYWwiIGZvbnQtZmFtaWx5PSJDaXNjb1NhbnNUVCBMaWdodCxDaXNjb1NhbnNUVCBMaWdodF9NU0ZvbnRTZXJ2aWNlLHNhbnMtc2VyaWYiIGZpbGwtb3BhY2l0eT0iMSIgZmlsbD0iIzU2OTMzNCI+W1ZDX24xLCAuLi4uLi5dPC90ZXh0Pjx0ZXh0IHRyYW5zZm9ybT0ibWF0cml4KDEgMCAwIDEgMjQ5Ni40IDIyNTQpIiB0ZXh0LWRlY29yYXRpb249Im5vbmUiIHdyaXRpbmctbW9kZT0ibHItdGIiIGRpcmVjdGlvbj0ibHRyIiB0ZXh0LWFuY2hvcj0ic3RhcnQiIGZvbnQtc2l6ZT0iMzIiIGZvbnQtc3RyZXRjaD0ibm9ybWFsIiBmb250LXdlaWdodD0iMzAwIiBmb250LXZhcmlhbnQ9Im5vcm1hbCIgZm9udC1zdHlsZT0ibm9ybWFsIiBmb250LWZhbWlseT0iQ2lzY29TYW5zVFQgTGlnaHQsQ2lzY29TYW5zVFQgTGlnaHRfTVNGb250U2VydmljZSxzYW5zLXNlcmlmIiBmaWxsLW9wYWNpdHk9IjEiIGZpbGw9IiM1NjkzMzQiPkJhZGdlXzwvdGV4dD48dGV4dCB0cmFuc2Zvcm09Im1hdHJpeCgxIDAgMCAxIDI2MDkuODQgMjI1NCkiIHRleHQtZGVjb3JhdGlvbj0ibm9uZSIgd3JpdGluZy1tb2RlPSJsci10YiIgZGlyZWN0aW9uPSJsdHIiIHRleHQtYW5jaG9yPSJzdGFydCIgZm9udC1zaXplPSIzMiIgZm9udC1zdHJldGNoPSJub3JtYWwiIGZvbnQtd2VpZ2h0PSIzMDAiIGZvbnQtdmFyaWFudD0ibm9ybWFsIiBmb250LXN0eWxlPSJub3JtYWwiIGZvbnQtZmFtaWx5PSJDaXNjb1NhbnNUVCBMaWdodCxDaXNjb1NhbnNUVCBMaWdodF9NU0ZvbnRTZXJ2aWNlLHNhbnMtc2VyaWYiIGZpbGwtb3BhY2l0eT0iMSIgZmlsbD0iIzU2OTMzNCI+bjwvdGV4dD48dGV4dCB0cmFuc2Zvcm09Im1hdHJpeCgxIDAgMCAxIDIwMTcuOSAyMjU0KSIgdGV4dC1kZWNvcmF0aW9uPSJub25lIiB3cml0aW5nLW1vZGU9ImxyLXRiIiBkaXJlY3Rpb249Imx0ciIgdGV4dC1hbmNob3I9InN0YXJ0IiBmb250LXNpemU9IjMyIiBmb250LXN0cmV0Y2g9Im5vcm1hbCIgZm9udC13ZWlnaHQ9IjMwMCIgZm9udC12YXJpYW50PSJub3JtYWwiIGZvbnQtc3R5bGU9Im5vcm1hbCIgZm9udC1mYW1pbHk9IkNpc2NvU2Fuc1RUIExpZ2h0LENpc2NvU2Fuc1RUIExpZ2h0X01TRm9udFNlcnZpY2Usc2Fucy1zZXJpZiIgZmlsbC1vcGFjaXR5PSIxIiBmaWxsPSIjNTY5MzM0Ij5SZXNvbHZlck1ldGFkYXRhX248L3RleHQ+PHRleHQgdHJhbnNmb3JtPSJtYXRyaXgoMSAwIDAgMSAxODA3Ljk4IDIyNTQpIiB0ZXh0LWRlY29yYXRpb249Im5vbmUiIHdyaXRpbmctbW9kZT0ibHItdGIiIGRpcmVjdGlvbj0ibHRyIiB0ZXh0LWFuY2hvcj0ic3RhcnQiIGZvbnQtc2l6ZT0iMzIiIGZvbnQtc3RyZXRjaD0ibm9ybWFsIiBmb250LXdlaWdodD0iMzAwIiBmb250LXZhcmlhbnQ9Im5vcm1hbCIgZm9udC1zdHlsZT0ibm9ybWFsIiBmb250LWZhbWlseT0iQ2lzY29TYW5zVFQgTGlnaHQsQ2lzY29TYW5zVFQgTGlnaHRfTVNGb250U2VydmljZSxzYW5zLXNlcmlmIiBmaWxsLW9wYWNpdHk9IjEiIGZpbGw9IiM1NjkzMzQiPklEX248L3RleHQ+PHBhdGggZmlsbC1ydWxlPSJldmVub2RkIiBmaWxsPSJub25lIiBzdHJva2Utb3BhY2l0eT0iMSIgc3Ryb2tlLW1pdGVybGltaXQ9IjgiIHN0cm9rZS1saW5lam9pbj0ibWl0ZXIiIHN0cm9rZS1saW5lY2FwPSJidXR0IiBzdHJva2Utd2lkdGg9IjIuMjkxNjciIHN0cm9rZT0iIzQxNDI0NCIgZD0iTTM3MSA1NzUuMDAxQzM3MSA1NDAuNzU5IDM5OC43NTkgNTEzIDQzMy4wMDEgNTEzTDY4MC45OTkgNTEzQzcxNS4yNDEgNTEzIDc0MyA1NDAuNzU5IDc0MyA1NzUuMDAxTDc0MyA5MzcuOTk5Qzc0MyA5NzIuMjQxIDcxNS4yNDEgMTAwMCA2ODAuOTk5IDEwMDBMNDMzLjAwMSAxMDAwQzM5OC43NTkgMTAwMCAzNzEgOTcyLjI0MSAzNzEgOTM3Ljk5OVoiLz48dGV4dCB0cmFuc2Zvcm09Im1hdHJpeCgxIDAgMCAxIDUzMC45NTkgNTc3KSIgdGV4dC1kZWNvcmF0aW9uPSJub25lIiB3cml0aW5nLW1vZGU9ImxyLXRiIiBkaXJlY3Rpb249Imx0ciIgdGV4dC1hbmNob3I9InN0YXJ0IiBmb250LXNpemU9IjMyIiBmb250LXN0cmV0Y2g9Im5vcm1hbCIgZm9udC13ZWlnaHQ9IjcwMCIgZm9udC12YXJpYW50PSJub3JtYWwiIGZvbnQtc3R5bGU9Im5vcm1hbCIgZm9udC1mYW1pbHk9IkNpc2NvU2Fuc1RULENpc2NvU2Fuc1RUX01TRm9udFNlcnZpY2Usc2Fucy1zZXJpZiIgZmlsbC1vcGFjaXR5PSIxIiBmaWxsPSIjNDE0MjQ0Ij5vcmc8L3RleHQ+PHBhdGggZmlsbC1ydWxlPSJldmVub2RkIiBmaWxsPSJub25lIiBzdHJva2Utb3BhY2l0eT0iMSIgc3Ryb2tlLW1pdGVybGltaXQ9IjgiIHN0cm9rZS1saW5lam9pbj0ibWl0ZXIiIHN0cm9rZS1saW5lY2FwPSJidXR0IiBzdHJva2Utd2lkdGg9IjIuMjkxNjciIHN0cm9rZT0iIzQxNDI0NCIgZD0iTTQxMCA2MjkuMzM0QzQxMCA2MjMuNjI3IDQxNC42MjcgNjE5IDQyMC4zMzQgNjE5TDY5Mi42NjcgNjE5QzY5OC4zNzQgNjE5IDcwMyA2MjMuNjI3IDcwMyA2MjkuMzM0TDcwMyA2NzAuNjY2QzcwMyA2NzYuMzc0IDY5OC4zNzQgNjgxIDY5Mi42NjcgNjgxTDQyMC4zMzQgNjgxQzQxNC42MjcgNjgxIDQxMCA2NzYuMzc0IDQxMCA2NzAuNjY2WiIvPjx0ZXh0IHRyYW5zZm9ybT0ibWF0cml4KDEgMCAwIDEgNDYxLjg1NiA2NjEpIiB0ZXh0LWRlY29yYXRpb249Im5vbmUiIHdyaXRpbmctbW9kZT0ibHItdGIiIGRpcmVjdGlvbj0ibHRyIiB0ZXh0LWFuY2hvcj0ic3RhcnQiIGZvbnQtc2l6ZT0iMzIiIGZvbnQtc3RyZXRjaD0ibm9ybWFsIiBmb250LXdlaWdodD0iNzAwIiBmb250LXZhcmlhbnQ9Im5vcm1hbCIgZm9udC1zdHlsZT0ibm9ybWFsIiBmb250LWZhbWlseT0iQ2lzY29TYW5zVFQsQ2lzY29TYW5zVFRfTVNGb250U2VydmljZSxzYW5zLXNlcmlmIiBmaWxsLW9wYWNpdHk9IjEiIGZpbGw9IiM0MTQyNDQiPm9yZzpzdWI8L3RleHQ+PHRleHQgdHJhbnNmb3JtPSJtYXRyaXgoMSAwIDAgMSA1ODEuMDIzIDY2MSkiIHRleHQtZGVjb3JhdGlvbj0ibm9uZSIgd3JpdGluZy1tb2RlPSJsci10YiIgZGlyZWN0aW9uPSJsdHIiIHRleHQtYW5jaG9yPSJzdGFydCIgZm9udC1zaXplPSIzMiIgZm9udC1zdHJldGNoPSJub3JtYWwiIGZvbnQtd2VpZ2h0PSI3MDAiIGZvbnQtdmFyaWFudD0ibm9ybWFsIiBmb250LXN0eWxlPSJub3JtYWwiIGZvbnQtZmFtaWx5PSJDaXNjb1NhbnNUVCxDaXNjb1NhbnNUVF9NU0ZvbnRTZXJ2aWNlLHNhbnMtc2VyaWYiIGZpbGwtb3BhY2l0eT0iMSIgZmlsbD0iIzQxNDI0NCI+LTwvdGV4dD48dGV4dCB0cmFuc2Zvcm09Im1hdHJpeCgxIDAgMCAxIDU5OC4yMSA2NjEpIiB0ZXh0LWRlY29yYXRpb249Im5vbmUiIHdyaXRpbmctbW9kZT0ibHItdGIiIGRpcmVjdGlvbj0ibHRyIiB0ZXh0LWFuY2hvcj0ic3RhcnQiIGZvbnQtc2l6ZT0iMzIiIGZvbnQtc3RyZXRjaD0ibm9ybWFsIiBmb250LXdlaWdodD0iNzAwIiBmb250LXZhcmlhbnQ9Im5vcm1hbCIgZm9udC1zdHlsZT0ibm9ybWFsIiBmb250LWZhbWlseT0iQ2lzY29TYW5zVFQsQ2lzY29TYW5zVFRfTVNGb250U2VydmljZSxzYW5zLXNlcmlmIiBmaWxsLW9wYWNpdHk9IjEiIGZpbGw9IiM0MTQyNDQiPm9yZzwvdGV4dD48cGF0aCBmaWxsLXJ1bGU9ImV2ZW5vZGQiIGZpbGw9Im5vbmUiIHN0cm9rZS1vcGFjaXR5PSIxIiBzdHJva2UtbWl0ZXJsaW1pdD0iOCIgc3Ryb2tlLWxpbmVqb2luPSJtaXRlciIgc3Ryb2tlLWxpbmVjYXA9ImJ1dHQiIHN0cm9rZS13aWR0aD0iMi4yOTE2NyIgc3Ryb2tlPSIjNDE0MjQ0IiBkPSJNNDEwIDg5NS4zMzRDNDEwIDg4OS42MjcgNDE0LjYyNyA4ODUgNDIwLjMzNCA4ODVMNjkyLjY2NyA4ODVDNjk4LjM3NCA4ODUgNzAzIDg4OS42MjcgNzAzIDg5NS4zMzRMNzAzIDkzNi42NjdDNzAzIDk0Mi4zNzQgNjk4LjM3NCA5NDcgNjkyLjY2NyA5NDdMNDIwLjMzNCA5NDdDNDE0LjYyNyA5NDcgNDEwIDk0Mi4zNzQgNDEwIDkzNi42NjdaIi8+PHRleHQgdHJhbnNmb3JtPSJtYXRyaXgoMSAwIDAgMSA0NjEuODU2IDkyNikiIHRleHQtZGVjb3JhdGlvbj0ibm9uZSIgd3JpdGluZy1tb2RlPSJsci10YiIgZGlyZWN0aW9uPSJsdHIiIHRleHQtYW5jaG9yPSJzdGFydCIgZm9udC1zaXplPSIzMiIgZm9udC1zdHJldGNoPSJub3JtYWwiIGZvbnQtd2VpZ2h0PSI3MDAiIGZvbnQtdmFyaWFudD0ibm9ybWFsIiBmb250LXN0eWxlPSJub3JtYWwiIGZvbnQtZmFtaWx5PSJDaXNjb1NhbnNUVCxDaXNjb1NhbnNUVF9NU0ZvbnRTZXJ2aWNlLHNhbnMtc2VyaWYiIGZpbGwtb3BhY2l0eT0iMSIgZmlsbD0iIzQxNDI0NCI+b3JnOnN1YjwvdGV4dD48dGV4dCB0cmFuc2Zvcm09Im1hdHJpeCgxIDAgMCAxIDU4MS4wMjMgOTI2KSIgdGV4dC1kZWNvcmF0aW9uPSJub25lIiB3cml0aW5nLW1vZGU9ImxyLXRiIiBkaXJlY3Rpb249Imx0ciIgdGV4dC1hbmNob3I9InN0YXJ0IiBmb250LXNpemU9IjMyIiBmb250LXN0cmV0Y2g9Im5vcm1hbCIgZm9udC13ZWlnaHQ9IjcwMCIgZm9udC12YXJpYW50PSJub3JtYWwiIGZvbnQtc3R5bGU9Im5vcm1hbCIgZm9udC1mYW1pbHk9IkNpc2NvU2Fuc1RULENpc2NvU2Fuc1RUX01TRm9udFNlcnZpY2Usc2Fucy1zZXJpZiIgZmlsbC1vcGFjaXR5PSIxIiBmaWxsPSIjNDE0MjQ0Ij4tPC90ZXh0Pjx0ZXh0IHRyYW5zZm9ybT0ibWF0cml4KDEgMCAwIDEgNTk4LjIxIDkyNikiIHRleHQtZGVjb3JhdGlvbj0ibm9uZSIgd3JpdGluZy1tb2RlPSJsci10YiIgZGlyZWN0aW9uPSJsdHIiIHRleHQtYW5jaG9yPSJzdGFydCIgZm9udC1zaXplPSIzMiIgZm9udC1zdHJldGNoPSJub3JtYWwiIGZvbnQtd2VpZ2h0PSI3MDAiIGZvbnQtdmFyaWFudD0ibm9ybWFsIiBmb250LXN0eWxlPSJub3JtYWwiIGZvbnQtZmFtaWx5PSJDaXNjb1NhbnNUVCxDaXNjb1NhbnNUVF9NU0ZvbnRTZXJ2aWNlLHNhbnMtc2VyaWYiIGZpbGwtb3BhY2l0eT0iMSIgZmlsbD0iIzQxNDI0NCI+b3JnPC90ZXh0PjxwYXRoIHRyYW5zZm9ybT0ibWF0cml4KDEgMCAwIC0xIDU1MyA4NTcuMDk3KSIgZmlsbC1ydWxlPSJldmVub2RkIiBmaWxsPSJub25lIiBzdHJva2Utb3BhY2l0eT0iMSIgc3Ryb2tlLWRhc2hhcnJheT0iOS4xNjY2NyA2Ljg3NSIgc3Ryb2tlLW1pdGVybGltaXQ9IjEwIiBzdHJva2UtbGluZWpvaW49InJvdW5kIiBzdHJva2UtbGluZWNhcD0iYnV0dCIgc3Ryb2tlLXdpZHRoPSIyLjI5MTY3IiBzdHJva2U9IiM0MTQyNDQiIGQ9Ik0wIDAgMC4wMDAzNjA4OTIgMTQ5LjA5NyIvPjxwYXRoIGZpbGwtb3BhY2l0eT0iMSIgZmlsbC1ydWxlPSJub256ZXJvIiBmaWxsPSIjNDE0MjQ0IiBkPSJNNzAzIDY0OC44NTQgODg3Ljk1NyA2NDguODU1IDg4Ny45NTcgNjUxLjE0NiA3MDMgNjUxLjE0NlpNODgzLjM3NCA2NDAuODM0IDkxMC44NzQgNjUwIDg4My4zNzQgNjU5LjE2N1oiLz48dGV4dCB0cmFuc2Zvcm09Im1hdHJpeCgxIDAgMCAxIDc5Mi4xMSA1ODEpIiB0ZXh0LWRlY29yYXRpb249Im5vbmUiIHdyaXRpbmctbW9kZT0ibHItdGIiIGRpcmVjdGlvbj0ibHRyIiB0ZXh0LWFuY2hvcj0ic3RhcnQiIGZvbnQtc2l6ZT0iMzIiIGZvbnQtc3RyZXRjaD0ibm9ybWFsIiBmb250LXdlaWdodD0iMzAwIiBmb250LXZhcmlhbnQ9Im5vcm1hbCIgZm9udC1zdHlsZT0ibm9ybWFsIiBmb250LWZhbWlseT0iQ2lzY29TYW5zVFQgRXh0cmFMaWdodCxDaXNjb1NhbnNUVCBFeHRyYUxpZ2h0X01TRm9udFNlcnZpY2Usc2Fucy1zZXJpZiIgZmlsbC1vcGFjaXR5PSIxIiBmaWxsPSIjNDE0MjQ0Ij5jcmVhdGVzPC90ZXh0PjxwYXRoIGZpbGwtcnVsZT0iZXZlbm9kZCIgZmlsbD0ibm9uZSIgc3Ryb2tlLW9wYWNpdHk9IjEiIHN0cm9rZS1taXRlcmxpbWl0PSIxMCIgc3Ryb2tlLWxpbmVqb2luPSJyb3VuZCIgc3Ryb2tlLWxpbmVjYXA9ImJ1dHQiIHN0cm9rZS13aWR0aD0iMi4yOTE2NyIgc3Ryb2tlPSIjNDE0MjQ0IiBkPSJNOTE3IDY0OS41QzkxNyA2MDEuNzI3IDk5MS4zMjEgNTYzIDEwODMgNTYzIDExNzQuNjggNTYzIDEyNDkgNjAxLjcyNyAxMjQ5IDY0OS41IDEyNDkgNjk3LjI3MyAxMTc0LjY4IDczNiAxMDgzIDczNiA5OTEuMzIxIDczNiA5MTcgNjk3LjI3MyA5MTcgNjQ5LjVaIi8+PHRleHQgdHJhbnNmb3JtPSJtYXRyaXgoMSAwIDAgMSAxMDQwLjExIDYzNykiIHRleHQtZGVjb3JhdGlvbj0ibm9uZSIgd3JpdGluZy1tb2RlPSJsci10YiIgZGlyZWN0aW9uPSJsdHIiIHRleHQtYW5jaG9yPSJzdGFydCIgZm9udC1zaXplPSIzMiIgZm9udC1zdHJldGNoPSJub3JtYWwiIGZvbnQtd2VpZ2h0PSIzMDAiIGZvbnQtdmFyaWFudD0ibm9ybWFsIiBmb250LXN0eWxlPSJub3JtYWwiIGZvbnQtZmFtaWx5PSJDaXNjb1NhbnNUVCBFeHRyYUxpZ2h0LENpc2NvU2Fuc1RUIEV4dHJhTGlnaHRfTVNGb250U2VydmljZSxzYW5zLXNlcmlmIiBmaWxsLW9wYWNpdHk9IjEiIGZpbGw9IiM0MTQyNDQiPkFnZW50PC90ZXh0Pjx0ZXh0IHRyYW5zZm9ybT0ibWF0cml4KDEgMCAwIDEgMTAzMC42NiA2ODUpIiB0ZXh0LWRlY29yYXRpb249Im5vbmUiIHdyaXRpbmctbW9kZT0ibHItdGIiIGRpcmVjdGlvbj0ibHRyIiB0ZXh0LWFuY2hvcj0ic3RhcnQiIGZvbnQtc2l6ZT0iMzIiIGZvbnQtc3RyZXRjaD0ibm9ybWFsIiBmb250LXdlaWdodD0iMzAwIiBmb250LXZhcmlhbnQ9Im5vcm1hbCIgZm9udC1zdHlsZT0ibm9ybWFsIiBmb250LWZhbWlseT0iQ2lzY29TYW5zVFQgRXh0cmFMaWdodCxDaXNjb1NhbnNUVCBFeHRyYUxpZ2h0X01TRm9udFNlcnZpY2Usc2Fucy1zZXJpZiIgZmlsbC1vcGFjaXR5PSIxIiBmaWxsPSIjNDE0MjQ0Ij5zdWJqZWN0PC90ZXh0PjxyZWN0IGZpbGwtb3BhY2l0eT0iMSIgZmlsbD0iI0RCRTdGOSIgc3Ryb2tlLW9wYWNpdHk9IjEiIHN0cm9rZS1taXRlcmxpbWl0PSIxMCIgc3Ryb2tlLWxpbmVqb2luPSJyb3VuZCIgc3Ryb2tlLWxpbmVjYXA9ImJ1dHQiIHN0cm9rZS13aWR0aD0iMi4yOTE2NyIgc3Ryb2tlPSIjNDE0MjQ0IiBoZWlnaHQ9IjcwMSIgd2lkdGg9IjUxNiIgeT0iNDYzIiB4PSIxODkxIi8+PHBhdGggdHJhbnNmb3JtPSJtYXRyaXgoMSAwIDAgLTEgMTI0OSA2NDcpIiBmaWxsLW9wYWNpdHk9IjEiIGZpbGwtcnVsZT0ibm9uemVybyIgZmlsbD0iIzQxNDI0NCIgZD0iTTIuOTM4OWUtMDYtMS4xNDU4MyAxMTcuNzktMS4xNDU1MyAxMTcuNzkgMS4xNDYxNC0yLjkzODllLTA2IDEuMTQ1ODNaTTExMy4yMDctOS4xNjYzOCAxNDAuNzA3IDAuMDAwMzYwODkyIDExMy4yMDcgOS4xNjY5NloiLz48dGV4dCB0cmFuc2Zvcm09Im1hdHJpeCgxIDAgMCAxIDEyNzUuNTIgNTgyKSIgdGV4dC1kZWNvcmF0aW9uPSJub25lIiB3cml0aW5nLW1vZGU9ImxyLXRiIiBkaXJlY3Rpb249Imx0ciIgdGV4dC1hbmNob3I9InN0YXJ0IiBmb250LXNpemU9IjMyIiBmb250LXN0cmV0Y2g9Im5vcm1hbCIgZm9udC13ZWlnaHQ9IjMwMCIgZm9udC12YXJpYW50PSJub3JtYWwiIGZvbnQtc3R5bGU9Im5vcm1hbCIgZm9udC1mYW1pbHk9IkNpc2NvU2Fuc1RUIEV4dHJhTGlnaHQsQ2lzY29TYW5zVFQgRXh0cmFMaWdodF9NU0ZvbnRTZXJ2aWNlLHNhbnMtc2VyaWYiIGZpbGwtb3BhY2l0eT0iMSIgZmlsbD0iIzQxNDI0NCI+dXNlczwvdGV4dD48cGF0aCBmaWxsLXJ1bGU9ImV2ZW5vZGQiIGZpbGw9Im5vbmUiIHN0cm9rZS1vcGFjaXR5PSIxIiBzdHJva2UtbWl0ZXJsaW1pdD0iOCIgc3Ryb2tlLWxpbmVqb2luPSJtaXRlciIgc3Ryb2tlLWxpbmVjYXA9ImJ1dHQiIHN0cm9rZS13aWR0aD0iMi4yOTE2NyIgc3Ryb2tlPSIjNDE0MjQ0IiBkPSJNMTM5NyA1ODQuMzM0QzEzOTcgNTY3LjAyOSAxNDExLjAzIDU1MyAxNDI4LjMzIDU1M0wxNjA0LjY3IDU1M0MxNjIxLjk3IDU1MyAxNjM2IDU2Ny4wMjkgMTYzNiA1ODQuMzM0TDE2MzYgNzA5LjY2NkMxNjM2IDcyNi45NzEgMTYyMS45NyA3NDEgMTYwNC42NyA3NDFMMTQyOC4zMyA3NDFDMTQxMS4wMyA3NDEgMTM5NyA3MjYuOTcxIDEzOTcgNzA5LjY2NloiLz48dGV4dCB0cmFuc2Zvcm09Im1hdHJpeCgxIDAgMCAxIDE0NTIuMyA2MzcpIiB0ZXh0LWRlY29yYXRpb249Im5vbmUiIHdyaXRpbmctbW9kZT0ibHItdGIiIGRpcmVjdGlvbj0ibHRyIiB0ZXh0LWFuY2hvcj0ic3RhcnQiIGZvbnQtc2l6ZT0iMzIiIGZvbnQtc3RyZXRjaD0ibm9ybWFsIiBmb250LXdlaWdodD0iNzAwIiBmb250LXZhcmlhbnQ9Im5vcm1hbCIgZm9udC1zdHlsZT0ibm9ybWFsIiBmb250LWZhbWlseT0iQ2lzY29TYW5zVFQsQ2lzY29TYW5zVFRfTVNGb250U2VydmljZSxzYW5zLXNlcmlmIiBmaWxsLW9wYWNpdHk9IjEiIGZpbGw9IiMwMDAwMDAiPlNjaGVtYSA8L3RleHQ+PHRleHQgdHJhbnNmb3JtPSJtYXRyaXgoMSAwIDAgMSAxNDIzLjY1IDY4MykiIHRleHQtZGVjb3JhdGlvbj0ibm9uZSIgd3JpdGluZy1tb2RlPSJsci10YiIgZGlyZWN0aW9uPSJsdHIiIHRleHQtYW5jaG9yPSJzdGFydCIgZm9udC1zaXplPSIzMiIgZm9udC1zdHJldGNoPSJub3JtYWwiIGZvbnQtd2VpZ2h0PSI0MDAiIGZvbnQtdmFyaWFudD0ibm9ybWFsIiBmb250LXN0eWxlPSJub3JtYWwiIGZvbnQtZmFtaWx5PSJDaXNjb1NhbnNUVCxDaXNjb1NhbnNUVF9NU0ZvbnRTZXJ2aWNlLHNhbnMtc2VyaWYiIGZpbGwtb3BhY2l0eT0iMSIgZmlsbD0iIzAwMDAwMCI+KGUuZy4sIE9BU0YpPC90ZXh0PjxwYXRoIGZpbGwtb3BhY2l0eT0iMSIgZmlsbC1ydWxlPSJldmVub2RkIiBmaWxsPSIjRkZGRkZGIiBzdHJva2Utb3BhY2l0eT0iMSIgc3Ryb2tlLW1pdGVybGltaXQ9IjgiIHN0cm9rZS1saW5lam9pbj0ibWl0ZXIiIHN0cm9rZS1saW5lY2FwPSJidXR0IiBzdHJva2Utd2lkdGg9IjIuMjkxNjciIHN0cm9rZT0iIzQxNDI0NCIgZD0iTTE5NjMgNjAzLjY2OEMxOTYzIDU3NS42ODUgMTk4NS42OCA1NTMgMjAxMy42NyA1NTNMMjI4NC4zMyA1NTNDMjMxMi4zMiA1NTMgMjMzNSA1NzUuNjg1IDIzMzUgNjAzLjY2OEwyMzM1IDgwNi4zMzJDMjMzNSA4MzQuMzE1IDIzMTIuMzIgODU3IDIyODQuMzMgODU3TDIwMTMuNjcgODU3QzE5ODUuNjggODU3IDE5NjMgODM0LjMxNSAxOTYzIDgwNi4zMzJaIi8+PHRleHQgdHJhbnNmb3JtPSJtYXRyaXgoMSAwIDAgMSAyMDc2Ljc4IDYxOSkiIHRleHQtZGVjb3JhdGlvbj0ibm9uZSIgd3JpdGluZy1tb2RlPSJsci10YiIgZGlyZWN0aW9uPSJsdHIiIHRleHQtYW5jaG9yPSJzdGFydCIgZm9udC1zaXplPSIzMiIgZm9udC1zdHJldGNoPSJub3JtYWwiIGZvbnQtd2VpZ2h0PSI3MDAiIGZvbnQtdmFyaWFudD0ibm9ybWFsIiBmb250LXN0eWxlPSJub3JtYWwiIGZvbnQtZmFtaWx5PSJDaXNjb1NhbnNUVCxDaXNjb1NhbnNUVF9NU0ZvbnRTZXJ2aWNlLHNhbnMtc2VyaWYiIGZpbGwtb3BhY2l0eT0iMSIgZmlsbD0iIzAwMDAwMCI+U3RhbmRhcmQgPC90ZXh0Pjx0ZXh0IHRyYW5zZm9ybT0ibWF0cml4KDEgMCAwIDEgMjAxMi4zNCA2NjkpIiB0ZXh0LWRlY29yYXRpb249Im5vbmUiIHdyaXRpbmctbW9kZT0ibHItdGIiIGRpcmVjdGlvbj0ibHRyIiB0ZXh0LWFuY2hvcj0ic3RhcnQiIGZvbnQtc2l6ZT0iMzIiIGZvbnQtc3RyZXRjaD0ibm9ybWFsIiBmb250LXdlaWdodD0iNzAwIiBmb250LXZhcmlhbnQ9Im5vcm1hbCIgZm9udC1zdHlsZT0ibm9ybWFsIiBmb250LWZhbWlseT0iQ2lzY29TYW5zVFQsQ2lzY29TYW5zVFRfTVNGb250U2VydmljZSxzYW5zLXNlcmlmIiBmaWxsLW9wYWNpdHk9IjEiIGZpbGw9IiMwMDAwMDAiPnJlcHJlc2VudGF0aW9uIG9mIDwvdGV4dD48dGV4dCB0cmFuc2Zvcm09Im1hdHJpeCgxIDAgMCAxIDIwMzkuMjYgNzIwKSIgdGV4dC1kZWNvcmF0aW9uPSJub25lIiB3cml0aW5nLW1vZGU9ImxyLXRiIiBkaXJlY3Rpb249Imx0ciIgdGV4dC1hbmNob3I9InN0YXJ0IiBmb250LXNpemU9IjMyIiBmb250LXN0cmV0Y2g9Im5vcm1hbCIgZm9udC13ZWlnaHQ9IjcwMCIgZm9udC12YXJpYW50PSJub3JtYWwiIGZvbnQtc3R5bGU9Im5vcm1hbCIgZm9udC1mYW1pbHk9IkNpc2NvU2Fuc1RULENpc2NvU2Fuc1RUX01TRm9udFNlcnZpY2Usc2Fucy1zZXJpZiIgZmlsbC1vcGFjaXR5PSIxIiBmaWxsPSIjMDAwMDAwIj5BZ2VudCBzdWJqZWN0IDwvdGV4dD48dGV4dCB0cmFuc2Zvcm09Im1hdHJpeCgxIDAgMCAxIDIwNDYuOTkgNzcwKSIgdGV4dC1kZWNvcmF0aW9uPSJub25lIiB3cml0aW5nLW1vZGU9ImxyLXRiIiBkaXJlY3Rpb249Imx0ciIgdGV4dC1hbmNob3I9InN0YXJ0IiBmb250LXNpemU9IjMyIiBmb250LXN0cmV0Y2g9Im5vcm1hbCIgZm9udC13ZWlnaHQ9IjMwMCIgZm9udC12YXJpYW50PSJub3JtYWwiIGZvbnQtc3R5bGU9Im5vcm1hbCIgZm9udC1mYW1pbHk9IkNpc2NvU2Fuc1RUIEV4dHJhTGlnaHQsQ2lzY29TYW5zVFQgRXh0cmFMaWdodF9NU0ZvbnRTZXJ2aWNlLHNhbnMtc2VyaWYiIGZpbGwtb3BhY2l0eT0iMSIgZmlsbD0iIzAwMDAwMCI+KGUuZy4sIGluIEpTT04gPC90ZXh0Pjx0ZXh0IHRyYW5zZm9ybT0ibWF0cml4KDEgMCAwIDEgMjA5Ni41NiA4MjApIiB0ZXh0LWRlY29yYXRpb249Im5vbmUiIHdyaXRpbmctbW9kZT0ibHItdGIiIGRpcmVjdGlvbj0ibHRyIiB0ZXh0LWFuY2hvcj0ic3RhcnQiIGZvbnQtc2l6ZT0iMzIiIGZvbnQtc3RyZXRjaD0ibm9ybWFsIiBmb250LXdlaWdodD0iMzAwIiBmb250LXZhcmlhbnQ9Im5vcm1hbCIgZm9udC1zdHlsZT0ibm9ybWFsIiBmb250LWZhbWlseT0iQ2lzY29TYW5zVFQgRXh0cmFMaWdodCxDaXNjb1NhbnNUVCBFeHRyYUxpZ2h0X01TRm9udFNlcnZpY2Usc2Fucy1zZXJpZiIgZmlsbC1vcGFjaXR5PSIxIiBmaWxsPSIjMDAwMDAwIj5mb3JtYXQpPC90ZXh0PjxwYXRoIHRyYW5zZm9ybT0ibWF0cml4KDEgMCAwIC0xIDE2MzYgNjQ1KSIgZmlsbC1vcGFjaXR5PSIxIiBmaWxsLXJ1bGU9Im5vbnplcm8iIGZpbGw9IiM0MTQyNDQiIGQ9Ik0xLjI3MzE1ZS0wNi0xLjE0NTgzIDMwMS44ODctMS4xNDU1IDMwMS44ODcgMS4xNDYxNy0xLjI3MzE1ZS0wNiAxLjE0NTgzWk0yOTcuMzAzLTkuMTY2MzQgMzI0LjgwMyAwLjAwMDM2MDg5MiAyOTcuMzAzIDkuMTY3WiIvPjx0ZXh0IHRyYW5zZm9ybT0ibWF0cml4KDEgMCAwIDEgMTY3MS42MSA1ODEpIiB0ZXh0LWRlY29yYXRpb249Im5vbmUiIHdyaXRpbmctbW9kZT0ibHItdGIiIGRpcmVjdGlvbj0ibHRyIiB0ZXh0LWFuY2hvcj0ic3RhcnQiIGZvbnQtc2l6ZT0iMzIiIGZvbnQtc3RyZXRjaD0ibm9ybWFsIiBmb250LXdlaWdodD0iMzAwIiBmb250LXZhcmlhbnQ9Im5vcm1hbCIgZm9udC1zdHlsZT0ibm9ybWFsIiBmb250LWZhbWlseT0iQ2lzY29TYW5zVFQgRXh0cmFMaWdodCxDaXNjb1NhbnNUVCBFeHRyYUxpZ2h0X01TRm9udFNlcnZpY2Usc2Fucy1zZXJpZiIgZmlsbC1vcGFjaXR5PSIxIiBmaWxsPSIjNDE0MjQ0Ij50byBjcmVhdGU8L3RleHQ+PHBhdGggZmlsbC1vcGFjaXR5PSIxIiBmaWxsLXJ1bGU9ImV2ZW5vZGQiIGZpbGw9IiNGRkZGRkYiIHN0cm9rZS1vcGFjaXR5PSIxIiBzdHJva2UtbWl0ZXJsaW1pdD0iOCIgc3Ryb2tlLWxpbmVqb2luPSJtaXRlciIgc3Ryb2tlLWxpbmVjYXA9ImJ1dHQiIHN0cm9rZS13aWR0aD0iMi4yOTE2NyIgc3Ryb2tlPSIjNDE0MjQ0IiBkPSJNMjAwMCAxMDI2LjVDMjAwMCAxMDE3LjM5IDIwMDcuMzkgMTAxMCAyMDE2LjUgMTAxMEwyMjc2LjUgMTAxMEMyMjg1LjYxIDEwMTAgMjI5MyAxMDE3LjM5IDIyOTMgMTAyNi41TDIyOTMgMTA5Mi41QzIyOTMgMTEwMS42MSAyMjg1LjYxIDExMDkgMjI3Ni41IDExMDlMMjAxNi41IDExMDlDMjAwNy4zOSAxMTA5IDIwMDAgMTEwMS42MSAyMDAwIDEwOTIuNVoiLz48dGV4dCB0cmFuc2Zvcm09Im1hdHJpeCgxIDAgMCAxIDIwOTYgMTA3MCkiIHRleHQtZGVjb3JhdGlvbj0ibm9uZSIgd3JpdGluZy1tb2RlPSJsci10YiIgZGlyZWN0aW9uPSJsdHIiIHRleHQtYW5jaG9yPSJzdGFydCIgZm9udC1zaXplPSIzMiIgZm9udC1zdHJldGNoPSJub3JtYWwiIGZvbnQtd2VpZ2h0PSI3MDAiIGZvbnQtdmFyaWFudD0ibm9ybWFsIiBmb250LXN0eWxlPSJub3JtYWwiIGZvbnQtZmFtaWx5PSJDaXNjb1NhbnNUVCxDaXNjb1NhbnNUVF9NU0ZvbnRTZXJ2aWNlLHNhbnMtc2VyaWYiIGZpbGwtb3BhY2l0eT0iMSIgZmlsbD0iIzQxNDI0NCI+RGlnZXN0PC90ZXh0Pjx0ZXh0IHRyYW5zZm9ybT0ibWF0cml4KDEgMCAwIDEgMjE4OS43NiA5NDApIiB0ZXh0LWRlY29yYXRpb249Im5vbmUiIHdyaXRpbmctbW9kZT0ibHItdGIiIGRpcmVjdGlvbj0ibHRyIiB0ZXh0LWFuY2hvcj0ic3RhcnQiIGZvbnQtc2l6ZT0iMzIiIGZvbnQtc3RyZXRjaD0ibm9ybWFsIiBmb250LXdlaWdodD0iMzAwIiBmb250LXZhcmlhbnQ9Im5vcm1hbCIgZm9udC1zdHlsZT0ibm9ybWFsIiBmb250LWZhbWlseT0iQ2lzY29TYW5zVFQgRXh0cmFMaWdodCxDaXNjb1NhbnNUVCBFeHRyYUxpZ2h0X01TRm9udFNlcnZpY2Usc2Fucy1zZXJpZiIgZmlsbC1vcGFjaXR5PSIxIiBmaWxsPSIjNDE0MjQ0Ij5pcyBoYXNoZWQ8L3RleHQ+PHBhdGggZmlsbC1vcGFjaXR5PSIxIiBmaWxsLXJ1bGU9Im5vbnplcm8iIGZpbGw9IiM0MTQyNDQiIGQ9Ik0yMTUwLjE1IDg1NyAyMTUwLjE1IDk3Ny4yMTUgMjE0Ny44NSA5NzcuMjE1IDIxNDcuODUgODU3Wk0yMTU4LjE3IDk3Mi42MzIgMjE0OSAxMDAwLjEzIDIxMzkuODMgOTcyLjYzMloiLz48cGF0aCBmaWxsLXJ1bGU9ImV2ZW5vZGQiIGZpbGw9Im5vbmUiIHN0cm9rZS1vcGFjaXR5PSIxIiBzdHJva2UtZGFzaGFycmF5PSI5LjE2NjY3IDYuODc1IiBzdHJva2UtbWl0ZXJsaW1pdD0iMTAiIHN0cm9rZS1saW5lam9pbj0icm91bmQiIHN0cm9rZS1saW5lY2FwPSJidXR0IiBzdHJva2Utd2lkdGg9IjIuMjkxNjciIHN0cm9rZT0iIzU2OTMzNCIgZD0iTTIwNjEuMjUgMTY5My41NiAxODUzIDE0NjIiLz48cGF0aCB0cmFuc2Zvcm09Im1hdHJpeCgxIDAgMCAtMSAyMjM3IDE2OTIuNTYpIiBmaWxsLXJ1bGU9ImV2ZW5vZGQiIGZpbGw9Im5vbmUiIHN0cm9rZS1vcGFjaXR5PSIxIiBzdHJva2UtZGFzaGFycmF5PSI5LjE2NjY3IDYuODc1IiBzdHJva2UtbWl0ZXJsaW1pdD0iMTAiIHN0cm9rZS1saW5lam9pbj0icm91bmQiIHN0cm9rZS1saW5lY2FwPSJidXR0IiBzdHJva2Utd2lkdGg9IjIuMjkxNjciIHN0cm9rZT0iIzU2OTMzNCIgZD0iTTAgMCAyMDguMjQ5IDIzMS41NjQiLz48dGV4dCB0cmFuc2Zvcm09Im1hdHJpeCgxIDAgMCAxIDIwODAuNjggMTU4NSkiIHRleHQtZGVjb3JhdGlvbj0ibm9uZSIgd3JpdGluZy1tb2RlPSJsci10YiIgZGlyZWN0aW9uPSJsdHIiIHRleHQtYW5jaG9yPSJzdGFydCIgZm9udC1zaXplPSIzMiIgZm9udC1zdHJldGNoPSJub3JtYWwiIGZvbnQtd2VpZ2h0PSI3MDAiIGZvbnQtdmFyaWFudD0ibm9ybWFsIiBmb250LXN0eWxlPSJub3JtYWwiIGZvbnQtZmFtaWx5PSJDaXNjb1NhbnNUVCxDaXNjb1NhbnNUVF9NU0ZvbnRTZXJ2aWNlLHNhbnMtc2VyaWYiIGZpbGwtb3BhY2l0eT0iMSIgZmlsbD0iIzU2OTMzNCI+VmVyaWZpYWJsZSA8L3RleHQ+PHRleHQgdHJhbnNmb3JtPSJtYXRyaXgoMSAwIDAgMSAyMTA4Ljc2IDE2MjQpIiB0ZXh0LWRlY29yYXRpb249Im5vbmUiIHdyaXRpbmctbW9kZT0ibHItdGIiIGRpcmVjdGlvbj0ibHRyIiB0ZXh0LWFuY2hvcj0ic3RhcnQiIGZvbnQtc2l6ZT0iMzIiIGZvbnQtc3RyZXRjaD0ibm9ybWFsIiBmb250LXdlaWdodD0iNzAwIiBmb250LXZhcmlhbnQ9Im5vcm1hbCIgZm9udC1zdHlsZT0ibm9ybWFsIiBmb250LWZhbWlseT0iQ2lzY29TYW5zVFQsQ2lzY29TYW5zVFRfTVNGb250U2VydmljZSxzYW5zLXNlcmlmIiBmaWxsLW9wYWNpdHk9IjEiIGZpbGw9IiM1NjkzMzQiPkFnZW50IDwvdGV4dD48dGV4dCB0cmFuc2Zvcm09Im1hdHJpeCgxIDAgMCAxIDIxMDUuODkgMTY2MikiIHRleHQtZGVjb3JhdGlvbj0ibm9uZSIgd3JpdGluZy1tb2RlPSJsci10YiIgZGlyZWN0aW9uPSJsdHIiIHRleHQtYW5jaG9yPSJzdGFydCIgZm9udC1zaXplPSIzMiIgZm9udC1zdHJldGNoPSJub3JtYWwiIGZvbnQtd2VpZ2h0PSI3MDAiIGZvbnQtdmFyaWFudD0ibm9ybWFsIiBmb250LXN0eWxlPSJub3JtYWwiIGZvbnQtZmFtaWx5PSJDaXNjb1NhbnNUVCxDaXNjb1NhbnNUVF9NU0ZvbnRTZXJ2aWNlLHNhbnMtc2VyaWYiIGZpbGwtb3BhY2l0eT0iMSIgZmlsbD0iIzU2OTMzNCI+QmFkZ2U8L3RleHQ+PHBhdGggZmlsbC1ydWxlPSJldmVub2RkIiBmaWxsPSJub25lIiBzdHJva2Utb3BhY2l0eT0iMSIgc3Ryb2tlLW1pdGVybGltaXQ9IjgiIHN0cm9rZS1saW5lam9pbj0ibWl0ZXIiIHN0cm9rZS1saW5lY2FwPSJidXR0IiBzdHJva2Utd2lkdGg9IjIuMjkxNjciIHN0cm9rZT0iIzQxNDI0NCIgZD0iTTk5NyA4NzZDOTk3IDg2NS41MDcgMTAwNS41MSA4NTcgMTAxNiA4NTdMMTE0OCA4NTdDMTE1OC40OSA4NTcgMTE2NyA4NjUuNTA3IDExNjcgODc2TDExNjcgOTUyQzExNjcgOTYyLjQ5MyAxMTU4LjQ5IDk3MSAxMTQ4IDk3MUwxMDE2IDk3MUMxMDA1LjUxIDk3MSA5OTcgOTYyLjQ5MyA5OTcgOTUyWiIvPjx0ZXh0IHRyYW5zZm9ybT0ibWF0cml4KDEgMCAwIDEgMTAzMy4wMSA5MjcpIiB0ZXh0LWRlY29yYXRpb249Im5vbmUiIHdyaXRpbmctbW9kZT0ibHItdGIiIGRpcmVjdGlvbj0ibHRyIiB0ZXh0LWFuY2hvcj0ic3RhcnQiIGZvbnQtc2l6ZT0iMzIiIGZvbnQtc3RyZXRjaD0ibm9ybWFsIiBmb250LXdlaWdodD0iNzAwIiBmb250LXZhcmlhbnQ9Im5vcm1hbCIgZm9udC1zdHlsZT0ibm9ybWFsIiBmb250LWZhbWlseT0iQ2lzY29TYW5zVFQsQ2lzY29TYW5zVFRfTVNGb250U2VydmljZSxzYW5zLXNlcmlmIiBmaWxsLW9wYWNpdHk9IjEiIGZpbGw9IiMwMDAwMDAiPldhbGxldDwvdGV4dD48cGF0aCBmaWxsLW9wYWNpdHk9IjEiIGZpbGwtcnVsZT0ibm9uemVybyIgZmlsbD0iIzQxNDI0NCIgZD0iTTcwMy43NjUgNjQ5LjE0NyA5ODAuNzU2IDg5Ny43NTggOTc5LjIyNSA4OTkuNDYzIDcwMi4yMzUgNjUwLjg1M1pNOTgyLjcwMiA4ODguNzI3IDk5Ny4wNDUgOTEzLjkxOCA5NzAuNDU2IDkwMi4zNzFaIi8+PHRleHQgdHJhbnNmb3JtPSJtYXRyaXgoMSAwIDAgMSA5MjIuODE2IDgxOSkiIHRleHQtZGVjb3JhdGlvbj0ibm9uZSIgd3JpdGluZy1tb2RlPSJsci10YiIgZGlyZWN0aW9uPSJsdHIiIHRleHQtYW5jaG9yPSJzdGFydCIgZm9udC1zaXplPSIzMiIgZm9udC1zdHJldGNoPSJub3JtYWwiIGZvbnQtd2VpZ2h0PSIzMDAiIGZvbnQtdmFyaWFudD0ibm9ybWFsIiBmb250LXN0eWxlPSJub3JtYWwiIGZvbnQtZmFtaWx5PSJDaXNjb1NhbnNUVCBFeHRyYUxpZ2h0LENpc2NvU2Fuc1RUIEV4dHJhTGlnaHRfTVNGb250U2VydmljZSxzYW5zLXNlcmlmIiBmaWxsLW9wYWNpdHk9IjEiIGZpbGw9IiM0MTQyNDQiPnVzZXM8L3RleHQ+PHJlY3QgZmlsbD0ibm9uZSIgc3Ryb2tlLW9wYWNpdHk9IjEiIHN0cm9rZS1kYXNoYXJyYXk9IjkuMTY2NjcgNi44NzUiIHN0cm9rZS1taXRlcmxpbWl0PSIxMCIgc3Ryb2tlLWxpbmVqb2luPSJyb3VuZCIgc3Ryb2tlLWxpbmVjYXA9ImJ1dHQiIHN0cm9rZS13aWR0aD0iMi4yOTE2NyIgc3Ryb2tlPSIjNDE0MjQ0IiBoZWlnaHQ9IjE0NCIgd2lkdGg9IjE4NSIgeT0iMTEwNCIgeD0iOTkxIi8+PHRleHQgdHJhbnNmb3JtPSJtYXRyaXgoMSAwIDAgMSAxMDEyLjYgMTE2OCkiIHRleHQtZGVjb3JhdGlvbj0ibm9uZSIgd3JpdGluZy1tb2RlPSJsci10YiIgZGlyZWN0aW9uPSJsdHIiIHRleHQtYW5jaG9yPSJzdGFydCIgZm9udC1zaXplPSIzMiIgZm9udC1zdHJldGNoPSJub3JtYWwiIGZvbnQtd2VpZ2h0PSIzMDAiIGZvbnQtdmFyaWFudD0ibm9ybWFsIiBmb250LXN0eWxlPSJub3JtYWwiIGZvbnQtZmFtaWx5PSJDaXNjb1NhbnNUVCBFeHRyYUxpZ2h0LENpc2NvU2Fuc1RUIEV4dHJhTGlnaHRfTVNGb250U2VydmljZSxzYW5zLXNlcmlmIiBmaWxsLW9wYWNpdHk9IjEiIGZpbGw9IiM0MTQyNDQiPig8L3RleHQ+PHRleHQgdHJhbnNmb3JtPSJtYXRyaXgoMSAwIDAgMSAxMDIzLjQ5IDExNjgpIiB0ZXh0LWRlY29yYXRpb249Im5vbmUiIHdyaXRpbmctbW9kZT0ibHItdGIiIGRpcmVjdGlvbj0ibHRyIiB0ZXh0LWFuY2hvcj0ic3RhcnQiIGZvbnQtc2l6ZT0iMzIiIGZvbnQtc3RyZXRjaD0ibm9ybWFsIiBmb250LXdlaWdodD0iNzAwIiBmb250LXZhcmlhbnQ9Im5vcm1hbCIgZm9udC1zdHlsZT0ibm9ybWFsIiBmb250LWZhbWlseT0iQ2lzY29TYW5zVFQsQ2lzY29TYW5zVFRfTVNGb250U2VydmljZSxzYW5zLXNlcmlmIiBmaWxsLW9wYWNpdHk9IjEiIGZpbGw9IiM0MTQyNDQiPlB1YktleTwvdGV4dD48dGV4dCB0cmFuc2Zvcm09Im1hdHJpeCgxIDAgMCAxIDExNDQuOTQgMTE2OCkiIHRleHQtZGVjb3JhdGlvbj0ibm9uZSIgd3JpdGluZy1tb2RlPSJsci10YiIgZGlyZWN0aW9uPSJsdHIiIHRleHQtYW5jaG9yPSJzdGFydCIgZm9udC1zaXplPSIzMiIgZm9udC1zdHJldGNoPSJub3JtYWwiIGZvbnQtd2VpZ2h0PSIzMDAiIGZvbnQtdmFyaWFudD0ibm9ybWFsIiBmb250LXN0eWxlPSJub3JtYWwiIGZvbnQtZmFtaWx5PSJDaXNjb1NhbnNUVCBFeHRyYUxpZ2h0LENpc2NvU2Fuc1RUIEV4dHJhTGlnaHRfTVNGb250U2VydmljZSxzYW5zLXNlcmlmIiBmaWxsLW9wYWNpdHk9IjEiIGZpbGw9IiM0MTQyNDQiPiwgPC90ZXh0Pjx0ZXh0IHRyYW5zZm9ybT0ibWF0cml4KDEgMCAwIDEgMTAyMS40OSAxMjA3KSIgdGV4dC1kZWNvcmF0aW9uPSJub25lIiB3cml0aW5nLW1vZGU9ImxyLXRiIiBkaXJlY3Rpb249Imx0ciIgdGV4dC1hbmNob3I9InN0YXJ0IiBmb250LXNpemU9IjMyIiBmb250LXN0cmV0Y2g9Im5vcm1hbCIgZm9udC13ZWlnaHQ9IjcwMCIgZm9udC12YXJpYW50PSJub3JtYWwiIGZvbnQtc3R5bGU9Im5vcm1hbCIgZm9udC1mYW1pbHk9IkNpc2NvU2Fuc1RULENpc2NvU2Fuc1RUX01TRm9udFNlcnZpY2Usc2Fucy1zZXJpZiIgZmlsbC1vcGFjaXR5PSIxIiBmaWxsPSIjNDE0MjQ0Ij5QcnZLZXk8L3RleHQ+PHRleHQgdHJhbnNmb3JtPSJtYXRyaXgoMSAwIDAgMSAxMTM0LjM2IDEyMDcpIiB0ZXh0LWRlY29yYXRpb249Im5vbmUiIHdyaXRpbmctbW9kZT0ibHItdGIiIGRpcmVjdGlvbj0ibHRyIiB0ZXh0LWFuY2hvcj0ic3RhcnQiIGZvbnQtc2l6ZT0iMzIiIGZvbnQtc3RyZXRjaD0ibm9ybWFsIiBmb250LXdlaWdodD0iMzAwIiBmb250LXZhcmlhbnQ9Im5vcm1hbCIgZm9udC1zdHlsZT0ibm9ybWFsIiBmb250LWZhbWlseT0iQ2lzY29TYW5zVFQgRXh0cmFMaWdodCxDaXNjb1NhbnNUVCBFeHRyYUxpZ2h0X01TRm9udFNlcnZpY2Usc2Fucy1zZXJpZiIgZmlsbC1vcGFjaXR5PSIxIiBmaWxsPSIjNDE0MjQ0Ij4pPC90ZXh0PjxwYXRoIGZpbGwtb3BhY2l0eT0iMSIgZmlsbC1ydWxlPSJub256ZXJvIiBmaWxsPSIjNDE0MjQ0IiBkPSJNNzA0LjAwNiA2NDkuNDUxIDk4MC41MDUgMTE1NS44MSA5NzguNDkzIDExNTYuOSA3MDEuOTk0IDY1MC41NDlaTTk4NS4zNDggMTE0Ny45NCA5OTAuNDgyIDExNzYuNDcgOTY5LjI1NyAxMTU2LjczWiIvPjx0ZXh0IHRyYW5zZm9ybT0ibWF0cml4KDEgMCAwIDEgODUxLjc0OCAxMTcwKSIgdGV4dC1kZWNvcmF0aW9uPSJub25lIiB3cml0aW5nLW1vZGU9ImxyLXRiIiBkaXJlY3Rpb249Imx0ciIgdGV4dC1hbmNob3I9InN0YXJ0IiBmb250LXNpemU9IjMyIiBmb250LXN0cmV0Y2g9Im5vcm1hbCIgZm9udC13ZWlnaHQ9IjMwMCIgZm9udC12YXJpYW50PSJub3JtYWwiIGZvbnQtc3R5bGU9Im5vcm1hbCIgZm9udC1mYW1pbHk9IkNpc2NvU2Fuc1RUIEV4dHJhTGlnaHQsQ2lzY29TYW5zVFQgRXh0cmFMaWdodF9NU0ZvbnRTZXJ2aWNlLHNhbnMtc2VyaWYiIGZpbGwtb3BhY2l0eT0iMSIgZmlsbD0iIzQxNDI0NCI+Y3JlYXRlczwvdGV4dD48cGF0aCBmaWxsLW9wYWNpdHk9IjEiIGZpbGwtcnVsZT0ibm9uemVybyIgZmlsbD0iIzQxNDI0NCIgZD0iTTEwODEuOTMgMTEwNC41NyAxMDgxLjA0IDk5My45MjUgMTA4My4zMyA5OTMuOTA3IDEwODQuMjIgMTEwNC41NVpNMTA3My4wNSA5OTguNTczIDEwODIgOTcxIDEwOTEuMzkgOTk4LjQyNloiLz48dGV4dCB0cmFuc2Zvcm09Im1hdHJpeCgxIDAgMCAxIDExMjcuOTQgMTAyMykiIHRleHQtZGVjb3JhdGlvbj0ibm9uZSIgd3JpdGluZy1tb2RlPSJsci10YiIgZGlyZWN0aW9uPSJsdHIiIHRleHQtYW5jaG9yPSJzdGFydCIgZm9udC1zaXplPSIzMiIgZm9udC1zdHJldGNoPSJub3JtYWwiIGZvbnQtd2VpZ2h0PSIzMDAiIGZvbnQtdmFyaWFudD0ibm9ybWFsIiBmb250LXN0eWxlPSJub3JtYWwiIGZvbnQtZmFtaWx5PSJDaXNjb1NhbnNUVCBFeHRyYUxpZ2h0LENpc2NvU2Fuc1RUIEV4dHJhTGlnaHRfTVNGb250U2VydmljZSxzYW5zLXNlcmlmIiBmaWxsLW9wYWNpdHk9IjEiIGZpbGw9IiM0MTQyNDQiPnN0b3JlczwvdGV4dD48dGV4dCB0cmFuc2Zvcm09Im1hdHJpeCgxIDAgMCAxIDExMTYuMjEgMTA2MikiIHRleHQtZGVjb3JhdGlvbj0ibm9uZSIgd3JpdGluZy1tb2RlPSJsci10YiIgZGlyZWN0aW9uPSJsdHIiIHRleHQtYW5jaG9yPSJzdGFydCIgZm9udC1zaXplPSIzMiIgZm9udC1zdHJldGNoPSJub3JtYWwiIGZvbnQtd2VpZ2h0PSI3MDAiIGZvbnQtdmFyaWFudD0ibm9ybWFsIiBmb250LXN0eWxlPSJub3JtYWwiIGZvbnQtZmFtaWx5PSJDaXNjb1NhbnNUVCxDaXNjb1NhbnNUVF9NU0ZvbnRTZXJ2aWNlLHNhbnMtc2VyaWYiIGZpbGwtb3BhY2l0eT0iMSIgZmlsbD0iIzQxNDI0NCI+UHJ2S2V5PC90ZXh0PjxwYXRoIGZpbGwtb3BhY2l0eT0iMSIgZmlsbC1ydWxlPSJub256ZXJvIiBmaWxsPSIjNTY5MzM0IiBkPSJNMTA4NC4xNSAxMjQ4IDEwODQuMTUgMTYyOS40NCAxMDgxLjg1IDE2MjkuNDQgMTA4MS44NSAxMjQ4Wk0xMDkyLjE3IDE2MjQuODUgMTA4MyAxNjUyLjM1IDEwNzMuODMgMTYyNC44NVoiLz48dGV4dCB0cmFuc2Zvcm09Im1hdHJpeCgxIDAgMCAxIDExMjcuOTIgMTMzOCkiIHRleHQtZGVjb3JhdGlvbj0ibm9uZSIgd3JpdGluZy1tb2RlPSJsci10YiIgZGlyZWN0aW9uPSJsdHIiIHRleHQtYW5jaG9yPSJzdGFydCIgZm9udC1zaXplPSIzMiIgZm9udC1zdHJldGNoPSJub3JtYWwiIGZvbnQtd2VpZ2h0PSIzMDAiIGZvbnQtdmFyaWFudD0ibm9ybWFsIiBmb250LXN0eWxlPSJub3JtYWwiIGZvbnQtZmFtaWx5PSJDaXNjb1NhbnNUVCBFeHRyYUxpZ2h0LENpc2NvU2Fuc1RUIEV4dHJhTGlnaHRfTVNGb250U2VydmljZSxzYW5zLXNlcmlmIiBmaWxsLW9wYWNpdHk9IjEiIGZpbGw9IiM1NjkzMzQiPnN0b3JlczwvdGV4dD48dGV4dCB0cmFuc2Zvcm09Im1hdHJpeCgxIDAgMCAxIDExMTEuODggMTM3NykiIHRleHQtZGVjb3JhdGlvbj0ibm9uZSIgd3JpdGluZy1tb2RlPSJsci10YiIgZGlyZWN0aW9uPSJsdHIiIHRleHQtYW5jaG9yPSJzdGFydCIgZm9udC1zaXplPSIzMiIgZm9udC1zdHJldGNoPSJub3JtYWwiIGZvbnQtd2VpZ2h0PSI3MDAiIGZvbnQtdmFyaWFudD0ibm9ybWFsIiBmb250LXN0eWxlPSJub3JtYWwiIGZvbnQtZmFtaWx5PSJDaXNjb1NhbnNUVCxDaXNjb1NhbnNUVF9NU0ZvbnRTZXJ2aWNlLHNhbnMtc2VyaWYiIGZpbGwtb3BhY2l0eT0iMSIgZmlsbD0iIzU2OTMzNCI+UHViS2V5PC90ZXh0PjxyZWN0IGZpbGwtb3BhY2l0eT0iMSIgZmlsbD0iIzU2OTMzNCIgc3Ryb2tlLW9wYWNpdHk9IjEiIHN0cm9rZS1taXRlcmxpbWl0PSIxMCIgc3Ryb2tlLWxpbmVqb2luPSJyb3VuZCIgc3Ryb2tlLWxpbmVjYXA9ImJ1dHQiIHN0cm9rZS13aWR0aD0iMi4yOTE2NyIgc3Ryb2tlPSIjNDE0MjQ0IiBoZWlnaHQ9IjE0OCIgd2lkdGg9IjI4OSIgeT0iMTY3MCIgeD0iOTIzIi8+PHRleHQgdHJhbnNmb3JtPSJtYXRyaXgoMSAwIDAgMSAxMDMxLjE2IDE3MzUpIiB0ZXh0LWRlY29yYXRpb249Im5vbmUiIHdyaXRpbmctbW9kZT0ibHItdGIiIGRpcmVjdGlvbj0ibHRyIiB0ZXh0LWFuY2hvcj0ic3RhcnQiIGZvbnQtc2l6ZT0iMzIiIGZvbnQtc3RyZXRjaD0ibm9ybWFsIiBmb250LXdlaWdodD0iMzAwIiBmb250LXZhcmlhbnQ9Im5vcm1hbCIgZm9udC1zdHlsZT0ibm9ybWFsIiBmb250LWZhbWlseT0iQ2lzY29TYW5zVFQgRXh0cmFMaWdodCxDaXNjb1NhbnNUVCBFeHRyYUxpZ2h0X01TRm9udFNlcnZpY2Usc2Fucy1zZXJpZiIgZmlsbC1vcGFjaXR5PSIxIiBmaWxsPSIjRkZGRkZGIj5UcnVzdCA8L3RleHQ+PHRleHQgdHJhbnNmb3JtPSJtYXRyaXgoMSAwIDAgMSAxMDA3Ljk2IDE3NzQpIiB0ZXh0LWRlY29yYXRpb249Im5vbmUiIHdyaXRpbmctbW9kZT0ibHItdGIiIGRpcmVjdGlvbj0ibHRyIiB0ZXh0LWFuY2hvcj0ic3RhcnQiIGZvbnQtc2l6ZT0iMzIiIGZvbnQtc3RyZXRjaD0ibm9ybWFsIiBmb250LXdlaWdodD0iMzAwIiBmb250LXZhcmlhbnQ9Im5vcm1hbCIgZm9udC1zdHlsZT0ibm9ybWFsIiBmb250LWZhbWlseT0iQ2lzY29TYW5zVFQgRXh0cmFMaWdodCxDaXNjb1NhbnNUVCBFeHRyYUxpZ2h0X01TRm9udFNlcnZpY2Usc2Fucy1zZXJpZiIgZmlsbC1vcGFjaXR5PSIxIiBmaWxsPSIjRkZGRkZGIj5BbmNob3JzPC90ZXh0PjxyZWN0IGZpbGwtb3BhY2l0eT0iMSIgZmlsbD0iIzU2OTMzNCIgc3Ryb2tlLW9wYWNpdHk9IjEiIHN0cm9rZS1taXRlcmxpbWl0PSIxMCIgc3Ryb2tlLWxpbmVqb2luPSJyb3VuZCIgc3Ryb2tlLWxpbmVjYXA9ImJ1dHQiIHN0cm9rZS13aWR0aD0iMi4yOTE2NyIgc3Ryb2tlPSIjNDE0MjQ0IiBoZWlnaHQ9IjE0NyIgd2lkdGg9IjI4OSIgeT0iMTY4OCIgeD0iOTU1Ii8+PHRleHQgdHJhbnNmb3JtPSJtYXRyaXgoMSAwIDAgMSAxMDYzLjIzIDE3NTMpIiB0ZXh0LWRlY29yYXRpb249Im5vbmUiIHdyaXRpbmctbW9kZT0ibHItdGIiIGRpcmVjdGlvbj0ibHRyIiB0ZXh0LWFuY2hvcj0ic3RhcnQiIGZvbnQtc2l6ZT0iMzIiIGZvbnQtc3RyZXRjaD0ibm9ybWFsIiBmb250LXdlaWdodD0iMzAwIiBmb250LXZhcmlhbnQ9Im5vcm1hbCIgZm9udC1zdHlsZT0ibm9ybWFsIiBmb250LWZhbWlseT0iQ2lzY29TYW5zVFQgRXh0cmFMaWdodCxDaXNjb1NhbnNUVCBFeHRyYUxpZ2h0X01TRm9udFNlcnZpY2Usc2Fucy1zZXJpZiIgZmlsbC1vcGFjaXR5PSIxIiBmaWxsPSIjRkZGRkZGIj5UcnVzdCA8L3RleHQ+PHRleHQgdHJhbnNmb3JtPSJtYXRyaXgoMSAwIDAgMSAxMDQwLjA0IDE3OTIpIiB0ZXh0LWRlY29yYXRpb249Im5vbmUiIHdyaXRpbmctbW9kZT0ibHItdGIiIGRpcmVjdGlvbj0ibHRyIiB0ZXh0LWFuY2hvcj0ic3RhcnQiIGZvbnQtc2l6ZT0iMzIiIGZvbnQtc3RyZXRjaD0ibm9ybWFsIiBmb250LXdlaWdodD0iMzAwIiBmb250LXZhcmlhbnQ9Im5vcm1hbCIgZm9udC1zdHlsZT0ibm9ybWFsIiBmb250LWZhbWlseT0iQ2lzY29TYW5zVFQgRXh0cmFMaWdodCxDaXNjb1NhbnNUVCBFeHRyYUxpZ2h0X01TRm9udFNlcnZpY2Usc2Fucy1zZXJpZiIgZmlsbC1vcGFjaXR5PSIxIiBmaWxsPSIjRkZGRkZGIj5BbmNob3JzPC90ZXh0PjxyZWN0IGZpbGwtb3BhY2l0eT0iMSIgZmlsbD0iIzU2OTMzNCIgc3Ryb2tlLW9wYWNpdHk9IjEiIHN0cm9rZS1taXRlcmxpbWl0PSIxMCIgc3Ryb2tlLWxpbmVqb2luPSJyb3VuZCIgc3Ryb2tlLWxpbmVjYXA9ImJ1dHQiIHN0cm9rZS13aWR0aD0iMi4yOTE2NyIgc3Ryb2tlPSIjNDE0MjQ0IiBoZWlnaHQ9IjE0NyIgd2lkdGg9IjI4OSIgeT0iMTcxMCIgeD0iOTkzIi8+PHRleHQgdHJhbnNmb3JtPSJtYXRyaXgoMSAwIDAgMSAxMDI3LjA0IDE3NzMpIiB0ZXh0LWRlY29yYXRpb249Im5vbmUiIHdyaXRpbmctbW9kZT0ibHItdGIiIGRpcmVjdGlvbj0ibHRyIiB0ZXh0LWFuY2hvcj0ic3RhcnQiIGZvbnQtc2l6ZT0iMzIiIGZvbnQtc3RyZXRjaD0ibm9ybWFsIiBmb250LXdlaWdodD0iNTAwIiBmb250LXZhcmlhbnQ9Im5vcm1hbCIgZm9udC1zdHlsZT0ibm9ybWFsIiBmb250LWZhbWlseT0iQ2lzY29TYW5zVFQgTWVkaXVtLENpc2NvU2Fuc1RUIE1lZGl1bV9NU0ZvbnRTZXJ2aWNlLHNhbnMtc2VyaWYiIGZpbGwtb3BhY2l0eT0iMSIgZmlsbD0iI0ZGRkZGRiI+SWRlbnRpdHkgTm9kZXMgPC90ZXh0Pjx0ZXh0IHRyYW5zZm9ybT0ibWF0cml4KDEgMCAwIDEgMTEwMi4zNiAxODEyKSIgdGV4dC1kZWNvcmF0aW9uPSJub25lIiB3cml0aW5nLW1vZGU9ImxyLXRiIiBkaXJlY3Rpb249Imx0ciIgdGV4dC1hbmNob3I9InN0YXJ0IiBmb250LXNpemU9IjMyIiBmb250LXN0cmV0Y2g9Im5vcm1hbCIgZm9udC13ZWlnaHQ9IjUwMCIgZm9udC12YXJpYW50PSJub3JtYWwiIGZvbnQtc3R5bGU9Im5vcm1hbCIgZm9udC1mYW1pbHk9IkNpc2NvU2Fuc1RUIE1lZGl1bSxDaXNjb1NhbnNUVCBNZWRpdW1fTVNGb250U2VydmljZSxzYW5zLXNlcmlmIiBmaWxsLW9wYWNpdHk9IjEiIGZpbGw9IiNGRkZGRkYiPihJTnMpPC90ZXh0PjxwYXRoIGZpbGwtb3BhY2l0eT0iMSIgZmlsbC1ydWxlPSJub256ZXJvIiBmaWxsPSIjNTY5MzM0IiBkPSJNNzA0LjExMiA2NDkuNzI2IDk0NS42NTIgMTYzMC4xOCA5NDMuNDI3IDE2MzAuNzIgNzAxLjg4NyA2NTAuMjc0Wk05NTIuMzQ1IDE2MjMuODEgOTUwLjAyMyAxNjUyLjcxIDkzNC41NDQgMTYyOC4yWiIvPjx0ZXh0IHRyYW5zZm9ybT0ibWF0cml4KDEgMCAwIDEgNjY3LjczNiAxMTIyKSIgdGV4dC1kZWNvcmF0aW9uPSJub25lIiB3cml0aW5nLW1vZGU9ImxyLXRiIiBkaXJlY3Rpb249Imx0ciIgdGV4dC1hbmNob3I9InN0YXJ0IiBmb250LXNpemU9IjMyIiBmb250LXN0cmV0Y2g9Im5vcm1hbCIgZm9udC13ZWlnaHQ9IjMwMCIgZm9udC12YXJpYW50PSJub3JtYWwiIGZvbnQtc3R5bGU9Im5vcm1hbCIgZm9udC1mYW1pbHk9IkNpc2NvU2Fuc1RUIEV4dHJhTGlnaHQsQ2lzY29TYW5zVFQgRXh0cmFMaWdodF9NU0ZvbnRTZXJ2aWNlLHNhbnMtc2VyaWYiIGZpbGwtb3BhY2l0eT0iMSIgZmlsbD0iIzU2OTMzNCI+cmVnaXN0ZXJzPC90ZXh0PjxwYXRoIHRyYW5zZm9ybT0ibWF0cml4KC0xIDAgMCAxIDE3NDEuOTkgMTc3MSkiIGZpbGwtb3BhY2l0eT0iMSIgZmlsbC1ydWxlPSJub256ZXJvIiBmaWxsPSIjNTY5MzM0IiBkPSJNOS4zMTM4OGUtMDctMS4xNDU4MyA0MjEuMDY5LTEuMTQ1NDkgNDIxLjA2OSAxLjE0NjE4LTkuMzEzODhlLTA3IDEuMTQ1ODNaTTQxNi40ODUtOS4xNjYzMyA0NDMuOTg1IDAuMDAwMzYwODkyIDQxNi40ODUgOS4xNjdaIi8+PHRleHQgdHJhbnNmb3JtPSJtYXRyaXgoMSAwIDAgMSAxNDQ5LjE2IDE4MTQpIiB0ZXh0LWRlY29yYXRpb249Im5vbmUiIHdyaXRpbmctbW9kZT0ibHItdGIiIGRpcmVjdGlvbj0ibHRyIiB0ZXh0LWFuY2hvcj0ic3RhcnQiIGZvbnQtc2l6ZT0iMzIiIGZvbnQtc3RyZXRjaD0ibm9ybWFsIiBmb250LXdlaWdodD0iMzAwIiBmb250LXZhcmlhbnQ9Im5vcm1hbCIgZm9udC1zdHlsZT0ibm9ybWFsIiBmb250LWZhbWlseT0iQ2lzY29TYW5zVFQgRXh0cmFMaWdodCxDaXNjb1NhbnNUVCBFeHRyYUxpZ2h0X01TRm9udFNlcnZpY2Usc2Fucy1zZXJpZiIgZmlsbC1vcGFjaXR5PSIxIiBmaWxsPSIjNTY5MzM0Ij5pcyBzdG9yZWQ8L3RleHQ+PHBhdGggZmlsbC1vcGFjaXR5PSIxIiBmaWxsLXJ1bGU9Im5vbnplcm8iIGZpbGw9IiM1NjkzMzQiIGQ9Ik05MTYuMTkgMTc5MS4xMyA5MTMuODkgMTc5MS41MiA5MTQuMjA4IDE3OTEuNDEgOTExLjkyNiAxNzkyLjU0IDkxMi4xNCAxNzkyLjQgOTA5Ljg5NCAxNzk0LjIyIDkxMC4wMjkgMTc5NC4wOSA5MDcuODM3IDE3OTYuNTUgOTA1LjgwMyAxNzk5LjQ5IDkwMy44MyAxODAyLjk5IDkwMS45NDggMTgwNyA5MDAuMTggMTgxMS40NiA4OTguNTQ5IDE4MTYuMzIgODk3LjA3NiAxODIxLjU0IDg5NC42NzEgMTgzMi44NCA4OTMuMTI4IDE4NDQuOTEgODkyLjU4NSAxODU3LjM3IDg5Mi45NTIgMTg2My41NiA4OTQuMDEyIDE4NjkuNjggODk1LjcxOSAxODc1LjcyIDg5OC4wMjkgMTg4MS42MiA5MDAuODk1IDE4ODcuMzQgOTA0LjI3NCAxODkyLjgxIDkwOC4xMTcgMTg5OCA5MTIuMzc5IDE5MDIuODUgOTE3LjAxIDE5MDcuMyA5MjEuOTY1IDE5MTEuMzIgOTI3LjE5NCAxOTE0Ljg2IDkzMi42NDkgMTkxNy44NSA5MzguMjgyIDE5MjAuMjYgOTQ0LjA0MyAxOTIyLjAzIDk0OS44ODUgMTkyMy4xMyA5NTUuNzYyIDE5MjMuNSA5NjEuNjQyIDE5MjMuMTcgOTY3LjQ5MyAxOTIyLjIzIDk3My4yNTggMTkyMC43MyA5NzguODkxIDE5MTguNjkgOTg0LjM0MyAxOTE2LjE2IDk4OS41NjcgMTkxMy4xOCA5OTQuNTE1IDE5MDkuNzkgOTk5LjEzNyAxOTA2LjAzIDEwMDMuMzkgMTkwMS45NSAxMDA3LjIyIDE4OTcuNTkgMTAwNy4wNyAxODk3LjgxIDEwMTEuNjcgMTg4OS4xNSAxMDEzLjY5IDE4OTAuMjMgMTAwOS4wOSAxODk4Ljg4QzEwMDkuMDUgMTg5OC45NiAxMDA5IDE4OTkuMDMgMTAwOC45NCAxODk5LjFMMTAwNC45NyAxOTAzLjYxIDEwMDAuNTggMTkwNy44MSA5OTUuODA5IDE5MTEuNjggOTkwLjcwMSAxOTE1LjE3IDk4NS4zMDYgMTkxOC4yNCA5NzkuNjY5IDE5MjAuODUgOTczLjgzNSAxOTIyLjk1IDk2Ny44NTIgMTkyNC41IDk2MS43NjYgMTkyNS40NiA5NTUuNjE1IDE5MjUuNzggOTQ5LjQ2MSAxOTI1LjM4IDk0My4zNjYgMTkyNC4yMiA5MzcuMzc5IDE5MjIuMzYgOTMxLjU0NSAxOTE5Ljg2IDkyNS45MSAxOTE2Ljc1IDkyMC41MiAxOTEzLjEgOTE1LjQyIDE5MDguOTUgOTEwLjY1NiAxOTA0LjM2IDkwNi4yNzUgMTg5OS4zNiA5MDIuMzIzIDE4OTQuMDEgODk4Ljg0NiAxODg4LjM2IDg5NS44OTQgMTg4Mi40NiA4OTMuNTEzIDE4NzYuMzQgODkxLjc1NCAxODcwLjA3IDg5MC42NjQgMTg2My42OSA4OTAuMjk1IDE4NTcuMjcgODkwLjg1NSAxODQ0LjYyIDg5Mi40MyAxODMyLjM2IDg5NC44NyAxODIwLjkyIDg5Ni4zNzcgMTgxNS42IDg5OC4wNSAxODEwLjYxIDg5OS44NzQgMTgwNi4wMiA5MDEuODM1IDE4MDEuODYgOTAzLjkyMSAxNzk4LjE4IDkwNi4xMjcgMTc5NS4wMiA5MDguMzE4IDE3OTIuNTdDOTA4LjM2IDE3OTIuNTIgOTA4LjQwNSAxNzkyLjQ4IDkwOC40NTMgMTc5Mi40NEw5MTAuNjk4IDE3OTAuNjJDOTEwLjc2NCAxNzkwLjU3IDkxMC44MzYgMTc5MC41MiA5MTAuOTEyIDE3OTAuNDhMOTEzLjE5NCAxNzg5LjM2QzkxMy4yOTQgMTc4OS4zMSA5MTMuNDAxIDE3ODkuMjcgOTEzLjUxMSAxNzg5LjI2TDkxNS44MSAxNzg4Ljg3Wk0xMDAyLjUzIDE4OTEuMTQgMTAxOS45NCAxODY3Ljk1IDEwMTkuOTIgMTg5Ni45NFoiLz48dGV4dCB0cmFuc2Zvcm09Im1hdHJpeCgxIDAgMCAxIDcwOC41OTQgMTkzOSkiIHRleHQtZGVjb3JhdGlvbj0ibm9uZSIgd3JpdGluZy1tb2RlPSJsci10YiIgZGlyZWN0aW9uPSJsdHIiIHRleHQtYW5jaG9yPSJzdGFydCIgZm9udC1zaXplPSIzMiIgZm9udC1zdHJldGNoPSJub3JtYWwiIGZvbnQtd2VpZ2h0PSIzMDAiIGZvbnQtdmFyaWFudD0ibm9ybWFsIiBmb250LXN0eWxlPSJub3JtYWwiIGZvbnQtZmFtaWx5PSJDaXNjb1NhbnNUVCBFeHRyYUxpZ2h0LENpc2NvU2Fuc1RUIEV4dHJhTGlnaHRfTVNGb250U2VydmljZSxzYW5zLXNlcmlmIiBmaWxsLW9wYWNpdHk9IjEiIGZpbGw9IiM1NjkzMzQiPmJpbmRzIHRvPC90ZXh0Pjx0ZXh0IHRyYW5zZm9ybT0ibWF0cml4KDEgMCAwIDEgNTkwLjU3MyAxOTc4KSIgdGV4dC1kZWNvcmF0aW9uPSJub25lIiB3cml0aW5nLW1vZGU9ImxyLXRiIiBkaXJlY3Rpb249Imx0ciIgdGV4dC1hbmNob3I9InN0YXJ0IiBmb250LXNpemU9IjMyIiBmb250LXN0cmV0Y2g9Im5vcm1hbCIgZm9udC13ZWlnaHQ9IjMwMCIgZm9udC12YXJpYW50PSJub3JtYWwiIGZvbnQtc3R5bGU9Im5vcm1hbCIgZm9udC1mYW1pbHk9IkNpc2NvU2Fuc1RUIEV4dHJhTGlnaHQsQ2lzY29TYW5zVFQgRXh0cmFMaWdodF9NU0ZvbnRTZXJ2aWNlLHNhbnMtc2VyaWYiIGZpbGwtb3BhY2l0eT0iMSIgZmlsbD0iIzU2OTMzNCI+KDwvdGV4dD48dGV4dCB0cmFuc2Zvcm09Im1hdHJpeCgxIDAgMCAxIDYwMS40NTkgMTk3OCkiIHRleHQtZGVjb3JhdGlvbj0ibm9uZSIgd3JpdGluZy1tb2RlPSJsci10YiIgZGlyZWN0aW9uPSJsdHIiIHRleHQtYW5jaG9yPSJzdGFydCIgZm9udC1zaXplPSIzMiIgZm9udC1zdHJldGNoPSJub3JtYWwiIGZvbnQtd2VpZ2h0PSI3MDAiIGZvbnQtdmFyaWFudD0ibm9ybWFsIiBmb250LXN0eWxlPSJub3JtYWwiIGZvbnQtZmFtaWx5PSJDaXNjb1NhbnNUVCxDaXNjb1NhbnNUVF9NU0ZvbnRTZXJ2aWNlLHNhbnMtc2VyaWYiIGZpbGwtb3BhY2l0eT0iMSIgZmlsbD0iIzU2OTMzNCI+b3JnOnN1YjwvdGV4dD48dGV4dCB0cmFuc2Zvcm09Im1hdHJpeCgxIDAgMCAxIDcyMC42MjUgMTk3OCkiIHRleHQtZGVjb3JhdGlvbj0ibm9uZSIgd3JpdGluZy1tb2RlPSJsci10YiIgZGlyZWN0aW9uPSJsdHIiIHRleHQtYW5jaG9yPSJzdGFydCIgZm9udC1zaXplPSIzMiIgZm9udC1zdHJldGNoPSJub3JtYWwiIGZvbnQtd2VpZ2h0PSI3MDAiIGZvbnQtdmFyaWFudD0ibm9ybWFsIiBmb250LXN0eWxlPSJub3JtYWwiIGZvbnQtZmFtaWx5PSJDaXNjb1NhbnNUVCxDaXNjb1NhbnNUVF9NU0ZvbnRTZXJ2aWNlLHNhbnMtc2VyaWYiIGZpbGwtb3BhY2l0eT0iMSIgZmlsbD0iIzU2OTMzNCI+LTwvdGV4dD48dGV4dCB0cmFuc2Zvcm09Im1hdHJpeCgxIDAgMCAxIDczNy44MTMgMTk3OCkiIHRleHQtZGVjb3JhdGlvbj0ibm9uZSIgd3JpdGluZy1tb2RlPSJsci10YiIgZGlyZWN0aW9uPSJsdHIiIHRleHQtYW5jaG9yPSJzdGFydCIgZm9udC1zaXplPSIzMiIgZm9udC1zdHJldGNoPSJub3JtYWwiIGZvbnQtd2VpZ2h0PSI3MDAiIGZvbnQtdmFyaWFudD0ibm9ybWFsIiBmb250LXN0eWxlPSJub3JtYWwiIGZvbnQtZmFtaWx5PSJDaXNjb1NhbnNUVCxDaXNjb1NhbnNUVF9NU0ZvbnRTZXJ2aWNlLHNhbnMtc2VyaWYiIGZpbGwtb3BhY2l0eT0iMSIgZmlsbD0iIzU2OTMzNCI+b3JnPC90ZXh0Pjx0ZXh0IHRyYW5zZm9ybT0ibWF0cml4KDEgMCAwIDEgNzkwLjUyMSAxOTc4KSIgdGV4dC1kZWNvcmF0aW9uPSJub25lIiB3cml0aW5nLW1vZGU9ImxyLXRiIiBkaXJlY3Rpb249Imx0ciIgdGV4dC1hbmNob3I9InN0YXJ0IiBmb250LXNpemU9IjMyIiBmb250LXN0cmV0Y2g9Im5vcm1hbCIgZm9udC13ZWlnaHQ9IjMwMCIgZm9udC12YXJpYW50PSJub3JtYWwiIGZvbnQtc3R5bGU9Im5vcm1hbCIgZm9udC1mYW1pbHk9IkNpc2NvU2Fuc1RUIEV4dHJhTGlnaHQsQ2lzY29TYW5zVFQgRXh0cmFMaWdodF9NU0ZvbnRTZXJ2aWNlLHNhbnMtc2VyaWYiIGZpbGwtb3BhY2l0eT0iMSIgZmlsbD0iIzU2OTMzNCI+LCA8L3RleHQ+PHRleHQgdHJhbnNmb3JtPSJtYXRyaXgoMSAwIDAgMSA4MDkuNDI3IDE5NzgpIiB0ZXh0LWRlY29yYXRpb249Im5vbmUiIHdyaXRpbmctbW9kZT0ibHItdGIiIGRpcmVjdGlvbj0ibHRyIiB0ZXh0LWFuY2hvcj0ic3RhcnQiIGZvbnQtc2l6ZT0iMzIiIGZvbnQtc3RyZXRjaD0ibm9ybWFsIiBmb250LXdlaWdodD0iNzAwIiBmb250LXZhcmlhbnQ9Im5vcm1hbCIgZm9udC1zdHlsZT0ibm9ybWFsIiBmb250LWZhbWlseT0iQ2lzY29TYW5zVFQsQ2lzY29TYW5zVFRfTVNGb250U2VydmljZSxzYW5zLXNlcmlmIiBmaWxsLW9wYWNpdHk9IjEiIGZpbGw9IiM1NjkzMzQiPlB1YktleTwvdGV4dD48dGV4dCB0cmFuc2Zvcm09Im1hdHJpeCgxIDAgMCAxIDkzMC44ODYgMTk3OCkiIHRleHQtZGVjb3JhdGlvbj0ibm9uZSIgd3JpdGluZy1tb2RlPSJsci10YiIgZGlyZWN0aW9uPSJsdHIiIHRleHQtYW5jaG9yPSJzdGFydCIgZm9udC1zaXplPSIzMiIgZm9udC1zdHJldGNoPSJub3JtYWwiIGZvbnQtd2VpZ2h0PSIzMDAiIGZvbnQtdmFyaWFudD0ibm9ybWFsIiBmb250LXN0eWxlPSJub3JtYWwiIGZvbnQtZmFtaWx5PSJDaXNjb1NhbnNUVCBFeHRyYUxpZ2h0LENpc2NvU2Fuc1RUIEV4dHJhTGlnaHRfTVNGb250U2VydmljZSxzYW5zLXNlcmlmIiBmaWxsLW9wYWNpdHk9IjEiIGZpbGw9IiM1NjkzMzQiPik8L3RleHQ+PHBhdGggZmlsbC1vcGFjaXR5PSIxIiBmaWxsLXJ1bGU9Im5vbnplcm8iIGZpbGw9IiM1NjkzMzQiIGQ9Ik0yMTUwLjE1IDExNjcgMjE1MC4xNSAxMjg3LjIyIDIxNDcuODUgMTI4Ny4yMiAyMTQ3Ljg1IDExNjdaTTIxNTguMTcgMTI4Mi42MyAyMTQ5IDEzMTAuMTMgMjEzOS44MyAxMjgyLjYzWiIvPjx0ZXh0IHRyYW5zZm9ybT0ibWF0cml4KDEgMCAwIDEgMjIwOS43IDEyMjkpIiB0ZXh0LWRlY29yYXRpb249Im5vbmUiIHdyaXRpbmctbW9kZT0ibHItdGIiIGRpcmVjdGlvbj0ibHRyIiB0ZXh0LWFuY2hvcj0ic3RhcnQiIGZvbnQtc2l6ZT0iMzIiIGZvbnQtc3RyZXRjaD0ibm9ybWFsIiBmb250LXdlaWdodD0iMzAwIiBmb250LXZhcmlhbnQ9Im5vcm1hbCIgZm9udC1zdHlsZT0ibm9ybWFsIiBmb250LWZhbWlseT0iQ2lzY29TYW5zVFQgRXh0cmFMaWdodCxDaXNjb1NhbnNUVCBFeHRyYUxpZ2h0X01TRm9udFNlcnZpY2Usc2Fucy1zZXJpZiIgZmlsbC1vcGFjaXR5PSIxIiBmaWxsPSIjNTY5MzM0Ij51c2VzIGEgPC90ZXh0Pjx0ZXh0IHRyYW5zZm9ybT0ibWF0cml4KDEgMCAwIDEgMjIwMC44MyAxMjY4KSIgdGV4dC1kZWNvcmF0aW9uPSJub25lIiB3cml0aW5nLW1vZGU9ImxyLXRiIiBkaXJlY3Rpb249Imx0ciIgdGV4dC1hbmNob3I9InN0YXJ0IiBmb250LXNpemU9IjMyIiBmb250LXN0cmV0Y2g9Im5vcm1hbCIgZm9udC13ZWlnaHQ9IjcwMCIgZm9udC12YXJpYW50PSJub3JtYWwiIGZvbnQtc3R5bGU9Im5vcm1hbCIgZm9udC1mYW1pbHk9IkNpc2NvU2Fuc1RULENpc2NvU2Fuc1RUX01TRm9udFNlcnZpY2Usc2Fucy1zZXJpZiIgZmlsbC1vcGFjaXR5PSIxIiBmaWxsPSIjNTY5MzM0Ij5QcnZLZXk8L3RleHQ+PHBhdGggZmlsbC1vcGFjaXR5PSIxIiBmaWxsLXJ1bGU9ImV2ZW5vZGQiIGZpbGw9IiNGRkZGRkYiIHN0cm9rZS1vcGFjaXR5PSIxIiBzdHJva2UtbWl0ZXJsaW1pdD0iOCIgc3Ryb2tlLWxpbmVqb2luPSJtaXRlciIgc3Ryb2tlLWxpbmVjYXA9ImJ1dHQiIHN0cm9rZS13aWR0aD0iMi4yOTE2NyIgc3Ryb2tlPSIjNTY5MzM0IiBkPSJNMjAwMiAxMzM1LjVDMjAwMiAxMzI2LjM5IDIwMDkuMzkgMTMxOSAyMDE4LjUgMTMxOUwyMjc4LjUgMTMxOUMyMjg3LjYxIDEzMTkgMjI5NSAxMzI2LjM5IDIyOTUgMTMzNS41TDIyOTUgMTQwMS41QzIyOTUgMTQxMC42MSAyMjg3LjYxIDE0MTggMjI3OC41IDE0MThMMjAxOC41IDE0MThDMjAwOS4zOSAxNDE4IDIwMDIgMTQxMC42MSAyMDAyIDE0MDEuNVoiLz48dGV4dCB0cmFuc2Zvcm09Im1hdHJpeCgxIDAgMCAxIDIwNjMuMDEgMTM3OSkiIHRleHQtZGVjb3JhdGlvbj0ibm9uZSIgd3JpdGluZy1tb2RlPSJsci10YiIgZGlyZWN0aW9uPSJsdHIiIHRleHQtYW5jaG9yPSJzdGFydCIgZm9udC1zaXplPSIzMiIgZm9udC1zdHJldGNoPSJub3JtYWwiIGZvbnQtd2VpZ2h0PSI3MDAiIGZvbnQtdmFyaWFudD0ibm9ybWFsIiBmb250LXN0eWxlPSJub3JtYWwiIGZvbnQtZmFtaWx5PSJDaXNjb1NhbnNUVCxDaXNjb1NhbnNUVF9NU0ZvbnRTZXJ2aWNlLHNhbnMtc2VyaWYiIGZpbGwtb3BhY2l0eT0iMSIgZmlsbD0iIzU2OTMzNCI+RmluZ2VycHJpbnQ8L3RleHQ+PHBhdGggZmlsbC1ydWxlPSJldmVub2RkIiBmaWxsPSJub25lIiBzdHJva2Utb3BhY2l0eT0iMSIgc3Ryb2tlLWRhc2hhcnJheT0iOS4xNjY2NyA2Ljg3NSIgc3Ryb2tlLW1pdGVybGltaXQ9IjEwIiBzdHJva2UtbGluZWpvaW49InJvdW5kIiBzdHJva2UtbGluZWNhcD0iYnV0dCIgc3Ryb2tlLXdpZHRoPSIyLjI5MTY3IiBzdHJva2U9IiM1NjkzMzQiIGQ9Ik0yMTAwLjA4IDEyMzguNjQgMTY5OS45MSAxMjM4LjY0IDE2OTkuOTEgMTAzOCAxMjU2IDEwMzgiLz48cGF0aCBmaWxsLXJ1bGU9ImV2ZW5vZGQiIGZpbGw9Im5vbmUiIHN0cm9rZS1vcGFjaXR5PSIxIiBzdHJva2UtZGFzaGFycmF5PSI5LjE2NjY3IDYuODc1IiBzdHJva2UtbWl0ZXJsaW1pdD0iMTAiIHN0cm9rZS1saW5lam9pbj0icm91bmQiIHN0cm9rZS1saW5lY2FwPSJidXR0IiBzdHJva2Utd2lkdGg9IjIuMjkxNjciIHN0cm9rZT0iIzU2OTMzNCIgZD0iTTEzNzcuOTUgMjAxMC4wMiAxMTU2IDE2ODEiLz48dGV4dCB0cmFuc2Zvcm09Im1hdHJpeCgxIDAgMCAxIDE3OTYuNzUgMTc1OSkiIHRleHQtZGVjb3JhdGlvbj0ibm9uZSIgd3JpdGluZy1tb2RlPSJsci10YiIgZGlyZWN0aW9uPSJsdHIiIHRleHQtYW5jaG9yPSJzdGFydCIgZm9udC1zaXplPSIzMiIgZm9udC1zdHJldGNoPSJub3JtYWwiIGZvbnQtd2VpZ2h0PSI3MDAiIGZvbnQtdmFyaWFudD0ibm9ybWFsIiBmb250LXN0eWxlPSJub3JtYWwiIGZvbnQtZmFtaWx5PSJDaXNjb1NhbnNUVCxDaXNjb1NhbnNUVF9NU0ZvbnRTZXJ2aWNlLHNhbnMtc2VyaWYiIGZpbGwtb3BhY2l0eT0iMSIgZmlsbD0iIzU2OTMzNCI+UmVzb2x2ZXIgPC90ZXh0Pjx0ZXh0IHRyYW5zZm9ybT0ibWF0cml4KDEgMCAwIDEgMTc5MS41OSAxNzk4KSIgdGV4dC1kZWNvcmF0aW9uPSJub25lIiB3cml0aW5nLW1vZGU9ImxyLXRiIiBkaXJlY3Rpb249Imx0ciIgdGV4dC1hbmNob3I9InN0YXJ0IiBmb250LXNpemU9IjMyIiBmb250LXN0cmV0Y2g9Im5vcm1hbCIgZm9udC13ZWlnaHQ9IjcwMCIgZm9udC12YXJpYW50PSJub3JtYWwiIGZvbnQtc3R5bGU9Im5vcm1hbCIgZm9udC1mYW1pbHk9IkNpc2NvU2Fuc1RULENpc2NvU2Fuc1RUX01TRm9udFNlcnZpY2Usc2Fucy1zZXJpZiIgZmlsbC1vcGFjaXR5PSIxIiBmaWxsPSIjNTY5MzM0Ij5NZXRhZGF0YTwvdGV4dD48cGF0aCB0cmFuc2Zvcm09Im1hdHJpeCgtMS44MzY5N2UtMTYgLTEgLTEgMS44MzY5N2UtMTYgMTg2NS4xNiAxNzEyLjM4KSIgZmlsbC1ydWxlPSJldmVub2RkIiBmaWxsPSJub25lIiBzdHJva2Utb3BhY2l0eT0iMSIgc3Ryb2tlLWRhc2hhcnJheT0iOS4xNjY2NyA2Ljg3NSIgc3Ryb2tlLW1pdGVybGltaXQ9IjEwIiBzdHJva2UtbGluZWpvaW49InJvdW5kIiBzdHJva2UtbGluZWNhcD0iYnV0dCIgc3Ryb2tlLXdpZHRoPSIyLjI5MTY3IiBzdHJva2U9IiM1NjkzMzQiIGQ9Ik0wIDAgMTAyLjM4MSAwIDEwMi4zODEgNDU0LjE2NCIvPjxwYXRoIHRyYW5zZm9ybT0ibWF0cml4KDEgMCAwIC0xIDEyNjQgMTM1MCkiIGZpbGwtcnVsZT0iZXZlbm9kZCIgZmlsbD0ibm9uZSIgc3Ryb2tlLW9wYWNpdHk9IjEiIHN0cm9rZS1kYXNoYXJyYXk9IjkuMTY2NjcgNi44NzUiIHN0cm9rZS1taXRlcmxpbWl0PSIxMCIgc3Ryb2tlLWxpbmVqb2luPSJyb3VuZCIgc3Ryb2tlLWxpbmVjYXA9ImJ1dHQiIHN0cm9rZS13aWR0aD0iMi4yOTE2NyIgc3Ryb2tlPSIjNTY5MzM0IiBkPSJNMCAwIDE0OS43MDQgMC4wMDAzNjA4OTIiLz48dGV4dCB0cmFuc2Zvcm09Im1hdHJpeCgxIDAgMCAxIDExMDEuNjYgMTkzMikiIHRleHQtZGVjb3JhdGlvbj0ibm9uZSIgd3JpdGluZy1tb2RlPSJsci10YiIgZGlyZWN0aW9uPSJsdHIiIHRleHQtYW5jaG9yPSJzdGFydCIgZm9udC1zaXplPSIzMiIgZm9udC1zdHJldGNoPSJub3JtYWwiIGZvbnQtd2VpZ2h0PSI3MDAiIGZvbnQtdmFyaWFudD0ibm9ybWFsIiBmb250LXN0eWxlPSJub3JtYWwiIGZvbnQtZmFtaWx5PSJDaXNjb1NhbnNUVCxDaXNjb1NhbnNUVF9NU0ZvbnRTZXJ2aWNlLHNhbnMtc2VyaWYiIGZpbGwtb3BhY2l0eT0iMSIgZmlsbD0iIzU2OTMzNCI+VHJ1c3Q8L3RleHQ+PHRleHQgdHJhbnNmb3JtPSJtYXRyaXgoMSAwIDAgMSAxMDc2Ljc1IDE5NzEpIiB0ZXh0LWRlY29yYXRpb249Im5vbmUiIHdyaXRpbmctbW9kZT0ibHItdGIiIGRpcmVjdGlvbj0ibHRyIiB0ZXh0LWFuY2hvcj0ic3RhcnQiIGZvbnQtc2l6ZT0iMzIiIGZvbnQtc3RyZXRjaD0ibm9ybWFsIiBmb250LXdlaWdodD0iNzAwIiBmb250LXZhcmlhbnQ9Im5vcm1hbCIgZm9udC1zdHlsZT0ibm9ybWFsIiBmb250LWZhbWlseT0iQ2lzY29TYW5zVFQsQ2lzY29TYW5zVFRfTVNGb250U2VydmljZSxzYW5zLXNlcmlmIiBmaWxsLW9wYWNpdHk9IjEiIGZpbGw9IiM1NjkzMzQiPkFuY2hvcnM8L3RleHQ+PHRleHQgdHJhbnNmb3JtPSJtYXRyaXgoMSAwIDAgMSAyMDM0LjYxIDUxNikiIHRleHQtZGVjb3JhdGlvbj0ibm9uZSIgd3JpdGluZy1tb2RlPSJsci10YiIgZGlyZWN0aW9uPSJsdHIiIHRleHQtYW5jaG9yPSJzdGFydCIgZm9udC1zaXplPSIzMiIgZm9udC1zdHJldGNoPSJub3JtYWwiIGZvbnQtd2VpZ2h0PSIzMDAiIGZvbnQtdmFyaWFudD0ibm9ybWFsIiBmb250LXN0eWxlPSJub3JtYWwiIGZvbnQtZmFtaWx5PSJDaXNjb1NhbnNUVCBFeHRyYUxpZ2h0LENpc2NvU2Fuc1RUIEV4dHJhTGlnaHRfTVNGb250U2VydmljZSxzYW5zLXNlcmlmIiBmaWxsLW9wYWNpdHk9IjEiIGZpbGw9IiM0MTQyNDQiPkFnZW50IDwvdGV4dD48dGV4dCB0cmFuc2Zvcm09Im1hdHJpeCgxIDAgMCAxIDIxMjkuNzIgNTE2KSIgdGV4dC1kZWNvcmF0aW9uPSJub25lIiB3cml0aW5nLW1vZGU9ImxyLXRiIiBkaXJlY3Rpb249Imx0ciIgdGV4dC1hbmNob3I9InN0YXJ0IiBmb250LXNpemU9IjMyIiBmb250LXN0cmV0Y2g9Im5vcm1hbCIgZm9udC13ZWlnaHQ9IjMwMCIgZm9udC12YXJpYW50PSJub3JtYWwiIGZvbnQtc3R5bGU9Im5vcm1hbCIgZm9udC1mYW1pbHk9IkNpc2NvU2Fuc1RUIEV4dHJhTGlnaHQsQ2lzY29TYW5zVFQgRXh0cmFMaWdodF9NU0ZvbnRTZXJ2aWNlLHNhbnMtc2VyaWYiIGZpbGwtb3BhY2l0eT0iMSIgZmlsbD0iIzQxNDI0NCI+RGVmaW5pdGlvbjwvdGV4dD48cGF0aCB0cmFuc2Zvcm09Im1hdHJpeCgxLjgzNjk3ZS0xNiAxIDEgLTEuODM2OTdlLTE2IDU2MSAxNTAyKSIgZmlsbC1vcGFjaXR5PSIxIiBmaWxsLXJ1bGU9Im5vbnplcm8iIGZpbGw9IiM1NjkzMzQiIGQ9Ik0wLTEuMTQ1ODMgMjQxLjg5MS0xLjE0NTgzQzI0Mi41MjQtMS4xNDU4MyAyNDMuMDM3LTAuNjMyODI2IDI0My4wMzcgMEwyNDMuMDM3IDMzOS42NDUgMjQwLjc0NSAzMzkuNjQ1IDI0MC43NDUgMCAyNDEuODkxIDEuMTQ1ODMgMCAxLjE0NTgzWk0yNTEuMDU4IDMzNS4wNjIgMjQxLjg5MSAzNjIuNTYyIDIzMi43MjQgMzM1LjA2MloiLz48cmVjdCBmaWxsPSJub25lIiBzdHJva2Utb3BhY2l0eT0iMSIgc3Ryb2tlLWRhc2hhcnJheT0iOS4xNjY2NyA2Ljg3NSIgc3Ryb2tlLW1pdGVybGltaXQ9IjEwIiBzdHJva2UtbGluZWpvaW49InJvdW5kIiBzdHJva2UtbGluZWNhcD0iYnV0dCIgc3Ryb2tlLXdpZHRoPSIyLjI5MTY3IiBzdHJva2U9IiM0MTQyNDQiIGhlaWdodD0iMTQ0IiB3aWR0aD0iMTg1IiB5PSIxMzU4IiB4PSI0NjgiLz48dGV4dCB0cmFuc2Zvcm09Im1hdHJpeCgxIDAgMCAxIDUxNy41NTEgMTQwMikiIHRleHQtZGVjb3JhdGlvbj0ibm9uZSIgd3JpdGluZy1tb2RlPSJsci10YiIgZGlyZWN0aW9uPSJsdHIiIHRleHQtYW5jaG9yPSJzdGFydCIgZm9udC1zaXplPSIzMiIgZm9udC1zdHJldGNoPSJub3JtYWwiIGZvbnQtd2VpZ2h0PSI3MDAiIGZvbnQtdmFyaWFudD0ibm9ybWFsIiBmb250LXN0eWxlPSJub3JtYWwiIGZvbnQtZmFtaWx5PSJDaXNjb1NhbnNUVCxDaXNjb1NhbnNUVF9NU0ZvbnRTZXJ2aWNlLHNhbnMtc2VyaWYiIGZpbGwtb3BhY2l0eT0iMSIgZmlsbD0iIzQxNDI0NCI+SUQgZm9yIDwvdGV4dD48dGV4dCB0cmFuc2Zvcm09Im1hdHJpeCgxIDAgMCAxIDUxMy44MTUgMTQ0MSkiIHRleHQtZGVjb3JhdGlvbj0ibm9uZSIgd3JpdGluZy1tb2RlPSJsci10YiIgZGlyZWN0aW9uPSJsdHIiIHRleHQtYW5jaG9yPSJzdGFydCIgZm9udC1zaXplPSIzMiIgZm9udC1zdHJldGNoPSJub3JtYWwiIGZvbnQtd2VpZ2h0PSI3MDAiIGZvbnQtdmFyaWFudD0ibm9ybWFsIiBmb250LXN0eWxlPSJub3JtYWwiIGZvbnQtZmFtaWx5PSJDaXNjb1NhbnNUVCxDaXNjb1NhbnNUVF9NU0ZvbnRTZXJ2aWNlLHNhbnMtc2VyaWYiIGZpbGwtb3BhY2l0eT0iMSIgZmlsbD0iIzQxNDI0NCI+QWdlbnQgPC90ZXh0Pjx0ZXh0IHRyYW5zZm9ybT0ibWF0cml4KDEgMCAwIDEgNTAyLjA4MiAxNDc5KSIgdGV4dC1kZWNvcmF0aW9uPSJub25lIiB3cml0aW5nLW1vZGU9ImxyLXRiIiBkaXJlY3Rpb249Imx0ciIgdGV4dC1hbmNob3I9InN0YXJ0IiBmb250LXNpemU9IjMyIiBmb250LXN0cmV0Y2g9Im5vcm1hbCIgZm9udC13ZWlnaHQ9IjcwMCIgZm9udC12YXJpYW50PSJub3JtYWwiIGZvbnQtc3R5bGU9Im5vcm1hbCIgZm9udC1mYW1pbHk9IkNpc2NvU2Fuc1RULENpc2NvU2Fuc1RUX01TRm9udFNlcnZpY2Usc2Fucy1zZXJpZiIgZmlsbC1vcGFjaXR5PSIxIiBmaWxsPSIjNDE0MjQ0Ij5zdWJqZWN0PC90ZXh0PjxwYXRoIGZpbGwtb3BhY2l0eT0iMSIgZmlsbC1ydWxlPSJub256ZXJvIiBmaWxsPSIjNDE0MjQ0IiBkPSJNNTU4LjE0NiAxMDAwIDU1OC4xNDYgMTMzNS4wOSA1NTUuODU0IDEzMzUuMDkgNTU1Ljg1NCAxMDAwWk01NjYuMTY3IDEzMzAuNTEgNTU3IDEzNTguMDEgNTQ3LjgzNCAxMzMwLjUxWiIvPjx0ZXh0IHRyYW5zZm9ybT0ibWF0cml4KDEgMCAwIDEgNDI2Ljc0NCAxMTg1KSIgdGV4dC1kZWNvcmF0aW9uPSJub25lIiB3cml0aW5nLW1vZGU9ImxyLXRiIiBkaXJlY3Rpb249Imx0ciIgdGV4dC1hbmNob3I9InN0YXJ0IiBmb250LXNpemU9IjMyIiBmb250LXN0cmV0Y2g9Im5vcm1hbCIgZm9udC13ZWlnaHQ9IjMwMCIgZm9udC12YXJpYW50PSJub3JtYWwiIGZvbnQtc3R5bGU9Im5vcm1hbCIgZm9udC1mYW1pbHk9IkNpc2NvU2Fuc1RUIEV4dHJhTGlnaHQsQ2lzY29TYW5zVFQgRXh0cmFMaWdodF9NU0ZvbnRTZXJ2aWNlLHNhbnMtc2VyaWYiIGZpbGwtb3BhY2l0eT0iMSIgZmlsbD0iIzQxNDI0NCI+Y3JlYXRlczwvdGV4dD48dGV4dCB0cmFuc2Zvcm09Im1hdHJpeCgxIDAgMCAxIDQxNiAxNjM0KSIgdGV4dC1kZWNvcmF0aW9uPSJub25lIiB3cml0aW5nLW1vZGU9ImxyLXRiIiBkaXJlY3Rpb249Imx0ciIgdGV4dC1hbmNob3I9InN0YXJ0IiBmb250LXNpemU9IjMyIiBmb250LXN0cmV0Y2g9Im5vcm1hbCIgZm9udC13ZWlnaHQ9IjMwMCIgZm9udC12YXJpYW50PSJub3JtYWwiIGZvbnQtc3R5bGU9Im5vcm1hbCIgZm9udC1mYW1pbHk9IkNpc2NvU2Fuc1RUIEV4dHJhTGlnaHQsQ2lzY29TYW5zVFQgRXh0cmFMaWdodF9NU0ZvbnRTZXJ2aWNlLHNhbnMtc2VyaWYiIGZpbGwtb3BhY2l0eT0iMSIgZmlsbD0iIzU2OTMzNCI+aXMgc3RvcmVkPC90ZXh0PjxwYXRoIHRyYW5zZm9ybT0ibWF0cml4KDEgLTEuMjI0NjVlLTE2IC0xLjIyNDY1ZS0xNiAtMSA0NjggMTQyOS44NikiIGZpbGwtcnVsZT0iZXZlbm9kZCIgZmlsbD0ibm9uZSIgc3Ryb2tlLW9wYWNpdHk9IjEiIHN0cm9rZS1kYXNoYXJyYXk9IjkuMTY2NjcgNi44NzUiIHN0cm9rZS1taXRlcmxpbWl0PSIxMCIgc3Ryb2tlLWxpbmVqb2luPSJyb3VuZCIgc3Ryb2tlLWxpbmVjYXA9ImJ1dHQiIHN0cm9rZS13aWR0aD0iMi4yOTE2NyIgc3Ryb2tlPSIjNTY5MzM0IiBkPSJNMCAwLTIxMi4xNCAwLTIxMi4xNCAxMDQ5LjUzIDYxNS4wMjQgMTA0OS41MyA2MTUuMDI0IDg2Ni44NiIvPjx0ZXh0IHRyYW5zZm9ybT0ibWF0cml4KDEgMCAwIDEgNTM3LjQ1MyAzNTApIiB0ZXh0LWRlY29yYXRpb249Im5vbmUiIHdyaXRpbmctbW9kZT0ibHItdGIiIGRpcmVjdGlvbj0ibHRyIiB0ZXh0LWFuY2hvcj0ic3RhcnQiIGZvbnQtc2l6ZT0iMzIiIGZvbnQtc3RyZXRjaD0ibm9ybWFsIiBmb250LXdlaWdodD0iMzAwIiBmb250LXZhcmlhbnQ9Im5vcm1hbCIgZm9udC1zdHlsZT0ibm9ybWFsIiBmb250LWZhbWlseT0iQ2lzY29TYW5zVFQgRXh0cmFMaWdodCxDaXNjb1NhbnNUVCBFeHRyYUxpZ2h0X01TRm9udFNlcnZpY2Usc2Fucy1zZXJpZiIgZmlsbC1vcGFjaXR5PSIxIiBmaWxsPSIjNTY5MzM0Ij5pcyBhc3NvY2lhdGVkIHRvIDwvdGV4dD48cGF0aCB0cmFuc2Zvcm09Im1hdHJpeCgxIDAgMCAtMSA2NTMgMTQzMC40OCkiIGZpbGwtb3BhY2l0eT0iMSIgZmlsbC1ydWxlPSJub256ZXJvIiBmaWxsPSIjNTY5MzM0IiBkPSJNMC0xLjE0NTgzIDg2Mi45MTMtMS4xNDU4M0M4NjMuNTQ2LTEuMTQ1ODMgODY0LjA1OS0wLjYzMjgyNiA4NjQuMDU5IDBMODY0LjA1OSA2NjYuNTYyIDg2MS43NjcgNjY2LjU2MiA4NjEuNzY3IDAgODYyLjkxMyAxLjE0NTgzIDAgMS4xNDU4M1pNODcyLjA3OSA2NjEuOTc5IDg2Mi45MTMgNjg5LjQ3OSA4NTMuNzQ2IDY2MS45NzlaIi8+PHRleHQgdHJhbnNmb3JtPSJtYXRyaXgoMSAwIDAgMSAxNDE5Ljk0IDg5NSkiIHRleHQtZGVjb3JhdGlvbj0ibm9uZSIgd3JpdGluZy1tb2RlPSJsci10YiIgZGlyZWN0aW9uPSJsdHIiIHRleHQtYW5jaG9yPSJzdGFydCIgZm9udC1zaXplPSIzMiIgZm9udC1zdHJldGNoPSJub3JtYWwiIGZvbnQtd2VpZ2h0PSIzMDAiIGZvbnQtdmFyaWFudD0ibm9ybWFsIiBmb250LXN0eWxlPSJub3JtYWwiIGZvbnQtZmFtaWx5PSJDaXNjb1NhbnNUVCBFeHRyYUxpZ2h0LENpc2NvU2Fuc1RUIEV4dHJhTGlnaHRfTVNGb250U2VydmljZSxzYW5zLXNlcmlmIiBmaWxsLW9wYWNpdHk9IjEiIGZpbGw9IiM1NjkzMzQiPnVzZXM8L3RleHQ+PHBhdGggdHJhbnNmb3JtPSJtYXRyaXgoMSAwIDAgLTEgMTQxMSAxNjEwLjI2KSIgZmlsbC1ydWxlPSJldmVub2RkIiBmaWxsPSJub25lIiBzdHJva2Utb3BhY2l0eT0iMSIgc3Ryb2tlLWRhc2hhcnJheT0iOS4xNjY2NyA2Ljg3NSIgc3Ryb2tlLW1pdGVybGltaXQ9IjEwIiBzdHJva2UtbGluZWpvaW49InJvdW5kIiBzdHJva2UtbGluZWNhcD0iYnV0dCIgc3Ryb2tlLXdpZHRoPSIyLjI5MTY3IiBzdHJva2U9IiM1NjkzMzQiIGQ9Ik0wIDAgMC4wMDAzNjA4OTIgMjYwLjI2MiIvPjxwYXRoIGZpbGwtcnVsZT0iZXZlbm9kZCIgZmlsbD0ibm9uZSIgc3Ryb2tlLW9wYWNpdHk9IjEiIHN0cm9rZS1taXRlcmxpbWl0PSIxMCIgc3Ryb2tlLWxpbmVqb2luPSJyb3VuZCIgc3Ryb2tlLWxpbmVjYXA9ImJ1dHQiIHN0cm9rZS13aWR0aD0iMy40Mzc1IiBzdHJva2U9IiM1NjkzMzQiIGQ9Ik0xOTc1LjUgMTczNy42N0MxOTc1LjUgMTczMC40IDE5ODEuNCAxNzI0LjUgMTk4OC42NyAxNzI0LjVMMjA0MS4zMyAxNzI0LjVDMjA0OC42IDE3MjQuNSAyMDU0LjUgMTczMC40IDIwNTQuNSAxNzM3LjY3TDIwNTQuNSAxNzk2LjMzQzIwNTQuNSAxODAzLjYgMjA0OC42IDE4MDkuNSAyMDQxLjMzIDE4MDkuNUwxOTg4LjY3IDE4MDkuNUMxOTgxLjQgMTgwOS41IDE5NzUuNSAxODAzLjYgMTk3NS41IDE3OTYuMzNaIi8+PHBhdGggZmlsbC1ydWxlPSJldmVub2RkIiBmaWxsPSJub25lIiBzdHJva2Utb3BhY2l0eT0iMSIgc3Ryb2tlLW1pdGVybGltaXQ9IjEwIiBzdHJva2UtbGluZWpvaW49InJvdW5kIiBzdHJva2UtbGluZWNhcD0iYnV0dCIgc3Ryb2tlLXdpZHRoPSI2Ljg3NSIgc3Ryb2tlPSIjNTY5MzM0IiBkPSJNMTk5MC41IDE3NDMuNSAyMDM2LjA0IDE3NDMuNSIvPjxwYXRoIGZpbGwtcnVsZT0iZXZlbm9kZCIgZmlsbD0ibm9uZSIgc3Ryb2tlLW9wYWNpdHk9IjEiIHN0cm9rZS1taXRlcmxpbWl0PSIxMCIgc3Ryb2tlLWxpbmVqb2luPSJyb3VuZCIgc3Ryb2tlLWxpbmVjYXA9ImJ1dHQiIHN0cm9rZS13aWR0aD0iNi44NzUiIHN0cm9rZT0iIzU2OTMzNCIgZD0iTTE5OTEuNSAxNzY0LjUgMjAzNy4wNCAxNzY0LjUiLz48cGF0aCBmaWxsLXJ1bGU9ImV2ZW5vZGQiIGZpbGw9Im5vbmUiIHN0cm9rZS1vcGFjaXR5PSIxIiBzdHJva2UtbWl0ZXJsaW1pdD0iMTAiIHN0cm9rZS1saW5lam9pbj0icm91bmQiIHN0cm9rZS1saW5lY2FwPSJidXR0IiBzdHJva2Utd2lkdGg9IjYuODc1IiBzdHJva2U9IiM1NjkzMzQiIGQ9Ik0xOTkwLjUgMTc4My41IDIwMzYuMDQgMTc4My41Ii8+PHJlY3QgZmlsbD0ibm9uZSIgc3Ryb2tlLW9wYWNpdHk9IjEiIHN0cm9rZS1taXRlcmxpbWl0PSIxMCIgc3Ryb2tlLWxpbmVqb2luPSJyb3VuZCIgc3Ryb2tlLWxpbmVjYXA9ImJ1dHQiIHN0cm9rZS13aWR0aD0iNi44NzUiIHN0cm9rZT0iIzU2OTMzNCIgaGVpZ2h0PSI5MS4wMDAxIiB3aWR0aD0iMTM5IiB5PSIxNzIzLjUiIHg9IjIwODYuNSIvPjxyZWN0IGZpbGw9Im5vbmUiIHN0cm9rZS1vcGFjaXR5PSIxIiBzdHJva2UtbWl0ZXJsaW1pdD0iMTAiIHN0cm9rZS1saW5lam9pbj0icm91bmQiIHN0cm9rZS1saW5lY2FwPSJidXR0IiBzdHJva2Utd2lkdGg9IjkuMTY2NjciIHN0cm9rZT0iIzU2OTMzNCIgaGVpZ2h0PSIxMy4wMDAxIiB3aWR0aD0iMjguOTk5OCIgeT0iMTcxMS41IiB4PSIyMTQxLjUiLz48cmVjdCBmaWxsPSJub25lIiBzdHJva2Utb3BhY2l0eT0iMSIgc3Ryb2tlLW1pdGVybGltaXQ9IjEwIiBzdHJva2UtbGluZWpvaW49InJvdW5kIiBzdHJva2UtbGluZWNhcD0iYnV0dCIgc3Ryb2tlLXdpZHRoPSI5LjE2NjY3IiBzdHJva2U9IiM1NjkzMzQiIGhlaWdodD0iMTUuMDAwMSIgd2lkdGg9IjEzIiB5PSIxNjk5LjUiIHg9IjIxNDkuNSIvPjxwYXRoIGZpbGwtcnVsZT0iZXZlbm9kZCIgZmlsbD0ibm9uZSIgc3Ryb2tlLW9wYWNpdHk9IjEiIHN0cm9rZS1taXRlcmxpbWl0PSIxMCIgc3Ryb2tlLWxpbmVqb2luPSJyb3VuZCIgc3Ryb2tlLWxpbmVjYXA9ImJ1dHQiIHN0cm9rZS13aWR0aD0iMy40Mzc1IiBzdHJva2U9IiM1NjkzMzQiIGQ9Ik0yMTY1LjUgMTc1MC41IDIyMDUuODcgMTc1MC41Ii8+PHBhdGggZmlsbC1ydWxlPSJldmVub2RkIiBmaWxsPSJub25lIiBzdHJva2Utb3BhY2l0eT0iMSIgc3Ryb2tlLW1pdGVybGltaXQ9IjEwIiBzdHJva2UtbGluZWpvaW49InJvdW5kIiBzdHJva2UtbGluZWNhcD0iYnV0dCIgc3Ryb2tlLXdpZHRoPSIzLjQzNzUiIHN0cm9rZT0iIzU2OTMzNCIgZD0iTTIxNjUuNSAxNzY3LjUgMjIwNS44NyAxNzY3LjUiLz48cGF0aCBmaWxsLXJ1bGU9ImV2ZW5vZGQiIGZpbGw9Im5vbmUiIHN0cm9rZS1vcGFjaXR5PSIxIiBzdHJva2UtbWl0ZXJsaW1pdD0iMTAiIHN0cm9rZS1saW5lam9pbj0icm91bmQiIHN0cm9rZS1saW5lY2FwPSJidXR0IiBzdHJva2Utd2lkdGg9IjMuNDM3NSIgc3Ryb2tlPSIjNTY5MzM0IiBkPSJNMjE2NS41IDE3ODUuNSAyMjA1Ljg3IDE3ODUuNSIvPjxwYXRoIGZpbGwtcnVsZT0iZXZlbm9kZCIgZmlsbD0ibm9uZSIgc3Ryb2tlLW9wYWNpdHk9IjEiIHN0cm9rZS1taXRlcmxpbWl0PSI4IiBzdHJva2UtbGluZWpvaW49Im1pdGVyIiBzdHJva2UtbGluZWNhcD0iYnV0dCIgc3Ryb2tlLXdpZHRoPSIzLjQzNzUiIHN0cm9rZT0iIzU2OTMzNCIgZD0iTTIxMjkgMTc3MS45NEMyMTMxLjE3IDE3NzEuOTQgMjEzMi45NCAxNzcwLjE3IDIxMzIuOTQgMTc2OCAyMTMyLjk0IDE3NjUuODMgMjEzMS4xNyAxNzY0LjA2IDIxMjkgMTc2NC4wNiAyMTI2LjgzIDE3NjQuMDYgMjEyNS4wNiAxNzY1LjgzIDIxMjUuMDYgMTc2OCAyMTI1LjA2IDE3NzAuMTcgMjEyNi44MyAxNzcxLjk0IDIxMjkgMTc3MS45NFpNMjEyOSAxNzY1LjNDMjEzMC40OCAxNzY1LjMgMjEzMS43IDE3NjYuNTIgMjEzMS43IDE3NjggMjEzMS43IDE3NjkuNDggMjEzMC40OCAxNzcwLjcgMjEyOSAxNzcwLjcgMjEyNy41MiAxNzcwLjcgMjEyNi4zIDE3NjkuNDggMjEyNi4zIDE3NjggMjEyNi4zIDE3NjYuNTIgMjEyNy41MiAxNzY1LjMgMjEyOSAxNzY1LjNaTTIxMjQuOTkgMTc2MS4wNkMyMTI0LjI2IDE3NjEuNDggMjEyMy4zNCAxNzYxLjQ0IDIxMjIuNjQgMTc2MC45NCAyMTIyLjEgMTc2MC41NiAyMTIxLjM5IDE3NjAuNjQgMjEyMC45NyAxNzYxLjEyIDIxMjAuMTMgMTc2Mi4xIDIxMTkuNDggMTc2My4yMiAyMTE5LjA0IDE3NjQuNDQgMjExOC44MiAxNzY1LjA2IDIxMTkuMTEgMTc2NS43NCAyMTE5LjcxIDE3NjYuMDIgMjEyMC40OCAxNzY2LjM3IDIxMjAuOTkgMTc2Ny4xNSAyMTIwLjk5IDE3NjggMjEyMC45OSAxNzY4Ljg1IDIxMjAuNDkgMTc2OS42MyAyMTE5LjcxIDE3NjkuOTggMjExOS4xMiAxNzcwLjI2IDIxMTguODIgMTc3MC45MyAyMTE5LjA0IDE3NzEuNTUgMjExOS4yNiAxNzcyLjE2IDIxMTkuNTIgMTc3Mi43NSAyMTE5Ljg0IDE3NzMuMyAyMTIwLjE1IDE3NzMuODQgMjEyMC41MiAxNzc0LjM3IDIxMjAuOTUgMTc3NC44NyAyMTIxLjM3IDE3NzUuMzYgMjEyMi4xIDE3NzUuNDUgMjEyMi42NCAxNzc1LjA3IDIxMjMuMzQgMTc3NC41OCAyMTI0LjI2IDE3NzQuNTMgMjEyNC45OSAxNzc0Ljk1IDIxMjUuNzIgMTc3NS4zNyAyMTI2LjE1IDE3NzYuMTkgMjEyNi4wNiAxNzc3LjA1IDIxMjYgMTc3Ny43MSAyMTI2LjQ1IDE3NzguMyAyMTI3LjA5IDE3NzguNDIgMjEyNy43MiAxNzc4LjUzIDIxMjguMzYgMTc3OC41OSAyMTI5IDE3NzguNTkgMjEyOS42NCAxNzc4LjU5IDIxMzAuMyAxNzc4LjUzIDIxMzAuOTQgMTc3OC40MSAyMTMxLjU2IDE3NzguMjkgMjEzMS45OSAxNzc3LjcgMjEzMS45MyAxNzc3LjA1IDIxMzEuODQgMTc3Ni4yIDIxMzIuMjcgMTc3NS4zOCAyMTMzLjAxIDE3NzQuOTUgMjEzMy43NCAxNzc0LjUzIDIxMzQuNjYgMTc3NC41NyAyMTM1LjM2IDE3NzUuMDcgMjEzNS45IDE3NzUuNDUgMjEzNi42MiAxNzc1LjM3IDIxMzcuMDMgMTc3NC44OSAyMTM3Ljg3IDE3NzMuOSAyMTM4LjUyIDE3NzIuNzggMjEzOC45NiAxNzcxLjU3IDIxMzkuMTggMTc3MC45NCAyMTM4Ljg5IDE3NzAuMjcgMjEzOC4yOSAxNzY5Ljk5IDIxMzcuNTIgMTc2OS42MyAyMTM3LjAxIDE3NjguODYgMjEzNy4wMSAxNzY4LjAxIDIxMzcuMDEgMTc2Ny4xNSAyMTM3LjUxIDE3NjYuMzggMjEzOC4yOSAxNzY2LjAzIDIxMzguODkgMTc2NS43NSAyMTM5LjE4IDE3NjUuMDggMjEzOC45NiAxNzY0LjQ2IDIxMzguNzQgMTc2My44NSAyMTM4LjQ4IDE3NjMuMjYgMjEzOC4xNiAxNzYyLjcxIDIxMzcuODUgMTc2Mi4xNyAyMTM3LjQ4IDE3NjEuNjQgMjEzNy4wNSAxNzYxLjE0IDIxMzYuNjMgMTc2MC42NCAyMTM1LjkgMTc2MC41NiAyMTM1LjM2IDE3NjAuOTQgMjEzNC42NyAxNzYxLjQ0IDIxMzMuNzQgMTc2MS40OCAyMTMzLjAxIDE3NjEuMDYgMjEzMi4yOCAxNzYwLjY0IDIxMzEuODUgMTc1OS44MiAyMTMxLjk0IDE3NTguOTYgMjEzMiAxNzU4LjMgMjEzMS41NSAxNzU3LjcxIDIxMzAuOTEgMTc1Ny41OSAyMTI5LjYzIDE3NTcuMzYgMjEyOC4zNCAxNzU3LjM2IDIxMjcuMDYgMTc1Ny41OSAyMTI2LjQ0IDE3NTcuNzEgMjEyNi4wMSAxNzU4LjMgMjEyNi4wNyAxNzU4Ljk1IDIxMjYuMTYgMTc1OS44IDIxMjUuNzMgMTc2MC42MiAyMTI0Ljk5IDE3NjEuMDVaTTIxMjcuMjggMTc1OC44M0MyMTI4LjQxIDE3NTguNjIgMjEyOS41NSAxNzU4LjYxIDIxMzAuNjkgMTc1OC44NCAyMTMwLjU3IDE3NjAuMTggMjEzMS4yMyAxNzYxLjQ3IDIxMzIuMzggMTc2Mi4xNCAyMTMzLjU0IDE3NjIuOCAyMTM0Ljk5IDE3NjIuNzMgMjEzNi4wOCAxNzYxLjk1IDIxMzYuMSAxNzYxLjk0IDIxMzYuMTEgMTc2MS45NSAyMTM2LjExIDE3NjEuOTUgMjEzNi40OCAxNzYyLjM5IDIxMzYuODEgMTc2Mi44NiAyMTM3LjA5IDE3NjMuMzMgMjEzNy4zNiAxNzYzLjggMjEzNy42IDE3NjQuMzMgMjEzNy43NyAxNzY0Ljg5IDIxMzYuNTUgMTc2NS40NSAyMTM1Ljc4IDE3NjYuNjYgMjEzNS43OCAxNzY4IDIxMzUuNzggMTc2OS4zNCAyMTM2LjU2IDE3NzAuNTUgMjEzNy44IDE3NzEuMTMgMjEzNy40MiAxNzcyLjIxIDIxMzYuODQgMTc3My4yIDIxMzYuMDkgMTc3NC4wNSAyMTM1IDE3NzMuMjcgMjEzMy41NSAxNzczLjIgMjEzMi4zOSAxNzczLjg2IDIxMzEuMjQgMTc3NC41MyAyMTMwLjU4IDE3NzUuODIgMjEzMC43MyAxNzc3LjE3IDIxMjkuNiAxNzc3LjM4IDIxMjguNDYgMTc3Ny4zOSAyMTI3LjMyIDE3NzcuMTYgMjEyNy40NCAxNzc1LjgyIDIxMjYuNzggMTc3NC41MyAyMTI1LjYyIDE3NzMuODYgMjEyNS4wOSAxNzczLjU2IDIxMjQuNTEgMTc3My40MSAyMTIzLjkyIDE3NzMuNDEgMjEyMy4yMSAxNzczLjQxIDIxMjIuNTEgMTc3My42MiAyMTIxLjkgMTc3NC4wNSAyMTIxLjUzIDE3NzMuNjEgMjEyMS4yIDE3NzMuMTQgMjEyMC45MiAxNzcyLjY3IDIxMjAuNjUgMTc3Mi4yIDIxMjAuNDEgMTc3MS42NyAyMTIwLjIzIDE3NzEuMTEgMjEyMS40NSAxNzcwLjU1IDIxMjIuMjMgMTc2OS4zNCAyMTIyLjIzIDE3NjggMjEyMi4yMyAxNzY2LjY2IDIxMjEuNDUgMTc2NS40NSAyMTIwLjIxIDE3NjQuODcgMjEyMC41OSAxNzYzLjc5IDIxMjEuMTYgMTc2Mi44IDIxMjEuOTIgMTc2MS45NSAyMTIzLjAxIDE3NjIuNzMgMjEyNC40NiAxNzYyLjggMjEyNS42MiAxNzYyLjE0IDIxMjYuNzggMTc2MS40NyAyMTI3LjQzIDE3NjAuMTggMjEyNy4yOCAxNzU4LjgzWk0yMTE3LjM5IDE3ODUuMjEgMjExMS45MiAxNzg1LjIxQzIxMTYuNDkgMTc4OS43NSAyMTIyLjUzIDE3OTIuMjYgMjEyOSAxNzkyLjI2IDIxNDIuMzggMTc5Mi4yNiAyMTUzLjI2IDE3ODEuMzggMjE1My4yNiAxNzY4IDIxNTMuMjYgMTc2NC4wNyAyMTUyLjM0IDE3NjAuMzEgMjE1MC41NCAxNzU2Ljg1TDIxNTEuNjUgMTc1Ni4yN0MyMTUzLjUxIDE3NTkuODYgMjE1NC41IDE3NjMuOTIgMjE1NC41IDE3NjggMjE1NC41IDE3ODIuMDYgMjE0My4wNiAxNzkzLjUgMjEyOSAxNzkzLjUgMjEyMi4zNiAxNzkzLjUgMjExNi4xNSAxNzkxIDIxMTEuMzggMTc4Ni40M0wyMTExLjM4IDE3OTEuMjIgMjExMC4xMyAxNzkxLjIyIDIxMTAuMTMgMTc4NC41OUMyMTEwLjEzIDE3ODQuMjUgMjExMC40MiAxNzgzLjk2IDIxMTAuNzYgMTc4My45NkwyMTE3LjM5IDE3ODMuOTYgMjExNy4zOSAxNzg1LjIxWk0yMTAzLjUgMTc2OEMyMTAzLjUgMTc1My45NCAyMTE0Ljk0IDE3NDIuNSAyMTI5IDE3NDIuNSAyMTM1LjY0IDE3NDIuNSAyMTQxLjg1IDE3NDUgMjE0Ni42MiAxNzQ5LjU3TDIxNDYuNjIgMTc0NC43OCAyMTQ3Ljg3IDE3NDQuNzggMjE0Ny44NyAxNzUxLjQxQzIxNDcuODcgMTc1MS43NSAyMTQ3LjU4IDE3NTIuMDQgMjE0Ny4yNCAxNzUyLjA0TDIxNDAuNjEgMTc1Mi4wNCAyMTQwLjYxIDE3NTAuNzkgMjE0Ni4wOCAxNzUwLjc5QzIxNDEuNTEgMTc0Ni4yNSAyMTM1LjQ3IDE3NDMuNzQgMjEyOSAxNzQzLjc0IDIxMTUuNjIgMTc0My43NCAyMTA0Ljc0IDE3NTQuNjIgMjEwNC43NCAxNzY4IDIxMDQuNzQgMTc3MS45MyAyMTA1LjY2IDE3NzUuNjkgMjEwNy40NiAxNzc5LjE1TDIxMDYuMzUgMTc3OS43M0MyMTA0LjQ5IDE3NzYuMTQgMjEwMy41IDE3NzIuMDggMjEwMy41IDE3NjhaIi8+PC9nPjwvZz48L3N2Zz4=;" vertex="1" parent="1">
          <mxGeometry x="100" y="230" width="1200" height="849" as="geometry" />
        </mxCell>
      </root>
    </mxGraphModel>
  </diagram>
</mxfile>
